<?xml version="1.0" encoding="utf-8"?>
<!-- Generated by IcoMoon.io -->
<!DOCTYPE svg PUBLIC "-//W3C//DTD SVG 1.1//EN" "http://www.w3.org/Graphics/SVG/1.1/DTD/svg11.dtd">
<svg version="1.1" xmlns="http://www.w3.org/2000/svg" xmlns:xlink="http://www.w3.org/1999/xlink" width="40" height="40" viewBox="0 0 40 40">
<path d="M19.13 14.842c-2.716-4.83-5.62-8.766-5.834-9.054-4.382 2.070-7.654 6.106-8.672 10.972 0.412 0.008 6.96 0.086 14.506-1.918zM21.088 20.12c0.208-0.066 0.412-0.126 0.622-0.186-0.394-0.894-0.826-1.788-1.276-2.67-8.092 2.42-15.858 2.246-16.134 2.238-0.006 0.166-0.012 0.33-0.012 0.498 0 4.042 1.528 7.722 4.032 10.506-0.004-0.004-0.012-0.014-0.012-0.014s4.302-7.628 12.78-10.372zM10.342 32.386l0.004-0.006c-0.118-0.092-0.242-0.174-0.356-0.27 0.208 0.168 0.352 0.276 0.352 0.276zM16.236 4.744c-0.014 0.004-0.028 0.006-0.040 0.010 0.022-0.006 0.038-0.008 0.040-0.010v0zM30.378 8.208c-2.768-2.438-6.398-3.92-10.376-3.92-1.278 0-2.516 0.156-3.704 0.444 0.238 0.316 3.188 4.236 5.876 9.166 5.924-2.222 8.164-5.626 8.204-5.69zM20.002 38.4c-10.164 0-18.402-8.238-18.402-18.4s8.238-18.4 18.402-18.4c10.162 0 18.398 8.238 18.398 18.4s-8.236 18.4-18.398 18.4zM22.674 22.57c-9.222 3.214-12.268 9.678-12.328 9.81 2.664 2.082 6.012 3.332 9.656 3.332 2.176 0 4.248-0.442 6.132-1.242-0.232-1.378-1.146-6.192-3.356-11.936-0.034 0.014-0.070 0.024-0.104 0.036zM23.38 16.238c0.368 0.75 0.718 1.51 1.044 2.28 0.118 0.272 0.228 0.542 0.34 0.812 5.428-0.682 10.77 0.476 10.944 0.514-0.036-3.728-1.368-7.148-3.572-9.824-0.032 0.046-2.552 3.686-8.756 6.218zM25.722 21.81c2.064 5.67 2.9 10.284 3.058 11.224 3.53-2.382 6.036-6.16 6.734-10.542-0.31-0.102-4.712-1.496-9.792-0.682z" fill="#000000"></path>
</svg>
