<?xml version="1.0" encoding="utf-8"?>
<!-- Generated by IcoMoon.io -->
<!DOCTYPE svg PUBLIC "-//W3C//DTD SVG 1.1//EN" "http://www.w3.org/Graphics/SVG/1.1/DTD/svg11.dtd">
<svg version="1.1" xmlns="http://www.w3.org/2000/svg" xmlns:xlink="http://www.w3.org/1999/xlink" width="40" height="40" viewBox="0 0 40 40">
<path d="M12.218 1.804l-11.418 7.112 7.822 6.558 11.378-7.39-7.782-6.28zM26.904 31.988c-0.204 0-0.406-0.070-0.57-0.208l-6.334-5.252-6.334 5.254c-0.164 0.136-0.368 0.208-0.57 0.208-0.17 0-0.34-0.046-0.488-0.144l-4.692-3.070v1.812l12.084 7.608 12.084-7.61v-1.812l-4.692 3.070c-0.148 0.098-0.318 0.144-0.488 0.144zM39.2 8.916l-11.418-7.112-7.782 6.28 11.376 7.388 7.824-6.556zM20 22.582l7.054 5.856 11.284-7.376-6.96-5.588-11.378 7.108zM12.946 28.438l7.054-5.856-11.376-7.11-6.96 5.59 11.282 7.376z" fill="#000000"></path>
</svg>
