<?xml version="1.0" encoding="utf-8"?>
<!-- Generated by IcoMoon.io -->
<!DOCTYPE svg PUBLIC "-//W3C//DTD SVG 1.1//EN" "http://www.w3.org/Graphics/SVG/1.1/DTD/svg11.dtd">
<svg version="1.1" xmlns="http://www.w3.org/2000/svg" xmlns:xlink="http://www.w3.org/1999/xlink" width="40" height="40" viewBox="0 0 40 40">
<path d="M16.8 8c0-2.652-2.15-4.8-4.8-4.8s-4.8 2.148-4.8 4.8c0 1.974 1.194 3.67 2.9 4.406v15.186c-1.706 0.736-2.9 2.432-2.9 4.408 0 2.65 2.15 4.8 4.8 4.8 2.652 0 4.8-2.15 4.8-4.8 0-1.976-1.196-3.672-2.9-4.408v-15.186c1.706-0.736 2.9-2.432 2.9-4.406zM14.77 32c0 1.53-1.24 2.77-2.77 2.77-1.528 0-2.768-1.24-2.768-2.77s1.24-2.77 2.768-2.77c1.53 0 2.77 1.24 2.77 2.77zM12 10.77c-1.528 0-2.768-1.24-2.768-2.77s1.24-2.77 2.768-2.77c1.53 0 2.77 1.24 2.77 2.77s-1.24 2.77-2.77 2.77zM29.902 27.592v-15.186c1.704-0.736 2.898-2.432 2.898-4.406 0-2.652-2.148-4.8-4.8-4.8-2.648 0-4.8 2.148-4.8 4.8 0 1.974 1.196 3.67 2.902 4.406v15.186c-1.708 0.736-2.902 2.432-2.902 4.408 0 2.65 2.152 4.8 4.8 4.8 2.652 0 4.8-2.15 4.8-4.8 0-1.976-1.194-3.672-2.898-4.408zM25.23 8c0-1.53 1.242-2.77 2.77-2.77 1.532 0 2.77 1.24 2.77 2.77s-1.238 2.77-2.77 2.77c-1.528 0-2.77-1.24-2.77-2.77zM28 34.77c-1.528 0-2.77-1.24-2.77-2.77s1.242-2.77 2.77-2.77c1.532 0 2.77 1.24 2.77 2.77s-1.238 2.77-2.77 2.77z" fill="#000000"></path>
</svg>
