<?xml version="1.0" encoding="utf-8"?>
<!-- Generated by IcoMoon.io -->
<!DOCTYPE svg PUBLIC "-//W3C//DTD SVG 1.1//EN" "http://www.w3.org/Graphics/SVG/1.1/DTD/svg11.dtd">
<svg version="1.1" xmlns="http://www.w3.org/2000/svg" xmlns:xlink="http://www.w3.org/1999/xlink" width="40" height="40" viewBox="0 0 40 40">
<path d="M32.8 8c0-2.65-2.148-4.8-4.8-4.8s-4.8 2.15-4.8 4.8c0 1.946 1.16 3.618 2.824 4.372-0.454 3.896-2.964 4.682-6.59 5.814-1.76 0.55-3.806 1.19-5.534 2.434v-8.212c1.706-0.738 2.9-2.434 2.9-4.408 0-2.65-2.15-4.8-4.8-4.8-2.652 0-4.8 2.15-4.8 4.8 0 1.974 1.194 3.67 2.9 4.408v15.186c-1.706 0.734-2.9 2.43-2.9 4.406 0 2.65 2.148 4.8 4.8 4.8 2.65 0 4.8-2.15 4.8-4.8 0-1.946-1.16-3.618-2.826-4.372 0.456-3.896 2.968-4.684 6.592-5.814 3.686-1.152 8.652-2.706 9.268-9.378 1.74-0.724 2.966-2.436 2.966-4.436zM9.23 8c0-1.53 1.24-2.77 2.77-2.77s2.77 1.24 2.77 2.77-1.24 2.77-2.77 2.77-2.77-1.24-2.77-2.77zM12 34.77c-1.53 0-2.77-1.24-2.77-2.77s1.24-2.77 2.77-2.77 2.77 1.24 2.77 2.77-1.24 2.77-2.77 2.77zM28 10.77c-1.528 0-2.77-1.24-2.77-2.77s1.242-2.77 2.77-2.77 2.77 1.24 2.77 2.77-1.242 2.77-2.77 2.77z" fill="#000000"></path>
</svg>
