<?xml version="1.0" encoding="utf-8"?>
<!-- Generated by IcoMoon.io -->
<!DOCTYPE svg PUBLIC "-//W3C//DTD SVG 1.1//EN" "http://www.w3.org/Graphics/SVG/1.1/DTD/svg11.dtd">
<svg version="1.1" xmlns="http://www.w3.org/2000/svg" xmlns:xlink="http://www.w3.org/1999/xlink" width="40" height="40" viewBox="0 0 40 40">
<path d="M28 29.2c-1.974 0-3.672 1.196-4.408 2.9h-6.592c-2.824 0-3.088-2.384-3.1-3.1v-7.736c0.862 0.398 1.886 0.636 3.1 0.636h6.592c0.736 1.706 2.434 2.9 4.408 2.9 2.65 0 4.8-2.15 4.8-4.8s-2.15-4.8-4.8-4.8c-1.974 0-3.672 1.196-4.408 2.9h-6.592c-2.824 0-3.088-2.384-3.1-3.1v-4.592c1.706-0.736 2.898-2.434 2.898-4.408 0-2.65-2.148-4.8-4.798-4.8s-4.8 2.15-4.8 4.8c0 1.974 1.196 3.67 2.9 4.408v18.592c0 2.774 1.838 6.9 6.9 6.9h6.592c0.736 1.706 2.434 2.9 4.408 2.9 2.65 0 4.8-2.148 4.8-4.8 0-2.65-2.15-4.8-4.8-4.8zM28 17.23c1.53 0 2.77 1.24 2.77 2.77s-1.24 2.77-2.77 2.77-2.77-1.24-2.77-2.77 1.24-2.77 2.77-2.77zM9.23 6c0-1.53 1.24-2.77 2.77-2.77s2.77 1.24 2.77 2.77-1.24 2.77-2.77 2.77-2.77-1.24-2.77-2.77zM28 36.77c-1.53 0-2.77-1.24-2.77-2.77s1.24-2.77 2.77-2.77 2.77 1.24 2.77 2.77-1.24 2.77-2.77 2.77z" fill="#000000"></path>
</svg>
