<?xml version="1.0" encoding="utf-8"?>
<!-- Generated by IcoMoon.io -->
<!DOCTYPE svg PUBLIC "-//W3C//DTD SVG 1.1//EN" "http://www.w3.org/Graphics/SVG/1.1/DTD/svg11.dtd">
<svg version="1.1" xmlns="http://www.w3.org/2000/svg" xmlns:xlink="http://www.w3.org/1999/xlink" width="40" height="40" viewBox="0 0 40 40">
<path d="M21.9 27.592v-15.186c1.706-0.736 2.9-2.432 2.9-4.406 0-2.652-2.15-4.8-4.8-4.8s-4.8 2.148-4.8 4.8c0 1.974 1.196 3.67 2.9 4.406v15.186c-1.706 0.736-2.9 2.432-2.9 4.408 0 2.65 2.15 4.8 4.8 4.8s4.8-2.15 4.8-4.8c0-1.976-1.194-3.672-2.9-4.408zM17.23 8c0-1.53 1.24-2.77 2.77-2.77s2.77 1.24 2.77 2.77-1.24 2.77-2.77 2.77-2.77-1.24-2.77-2.77zM20 34.77c-1.53 0-2.77-1.24-2.77-2.77s1.24-2.77 2.77-2.77 2.77 1.24 2.77 2.77-1.24 2.77-2.77 2.77z" fill="#000000"></path>
</svg>
