<?xml version="1.0" encoding="utf-8"?>
<!-- Generated by IcoMoon.io -->
<!DOCTYPE svg PUBLIC "-//W3C//DTD SVG 1.1//EN" "http://www.w3.org/Graphics/SVG/1.1/DTD/svg11.dtd">
<svg version="1.1" xmlns="http://www.w3.org/2000/svg" xmlns:xlink="http://www.w3.org/1999/xlink" width="40" height="40" viewBox="0 0 40 40">
<path d="M35.898 29.592v-4.592c0-2.774-1.836-6.9-6.898-6.9h-4c-2.824 0-3.086-1.384-3.1-2.1v-5.592c1.706-0.738 2.9-2.434 2.9-4.408 0-2.65-2.148-4.8-4.8-4.8s-4.8 2.15-4.8 4.8c0 1.974 1.194 3.67 2.9 4.408v5.592c0 0.518-0.15 2.1-3.1 2.1h-4c-5.062 0-6.9 4.126-6.9 6.9v4.592c-1.706 0.736-2.9 2.434-2.9 4.408 0 2.65 2.148 4.8 4.8 4.8 2.65 0 4.8-2.15 4.8-4.8 0-1.974-1.194-3.672-2.9-4.408v-4.592c0-0.518 0.15-3.1 3.1-3.1h4c1.214 0 2.238-0.184 3.1-0.496v8.188c-1.706 0.736-2.9 2.434-2.9 4.408 0 2.65 2.148 4.8 4.8 4.8s4.8-2.15 4.8-4.8c0-1.974-1.196-3.672-2.902-4.408v-8.188c0.862 0.312 1.886 0.496 3.1 0.496h4c2.824 0 3.086 2.384 3.102 3.1v4.592c-1.706 0.736-2.9 2.434-2.9 4.408 0 2.65 2.148 4.8 4.8 4.8s4.8-2.15 4.8-4.8c0-1.974-1.194-3.672-2.902-4.408zM8.77 34c0 1.53-1.24 2.77-2.77 2.77s-2.77-1.24-2.77-2.77 1.24-2.77 2.77-2.77 2.77 1.24 2.77 2.77zM17.23 6c0-1.53 1.242-2.77 2.77-2.77s2.768 1.24 2.768 2.77-1.24 2.77-2.768 2.77c-1.528 0-2.77-1.24-2.77-2.77zM22.77 34c0 1.53-1.242 2.77-2.768 2.77-1.53 0-2.77-1.24-2.77-2.77s1.24-2.77 2.768-2.77c1.528 0 2.77 1.24 2.77 2.77zM34 36.77c-1.528 0-2.77-1.24-2.77-2.77s1.242-2.77 2.77-2.77 2.77 1.24 2.77 2.77-1.242 2.77-2.77 2.77z" fill="#000000"></path>
</svg>
