<?xml version="1.0" encoding="utf-8"?>
<!-- Generated by IcoMoon.io -->
<!DOCTYPE svg PUBLIC "-//W3C//DTD SVG 1.1//EN" "http://www.w3.org/Graphics/SVG/1.1/DTD/svg11.dtd">
<svg version="1.1" xmlns="http://www.w3.org/2000/svg" xmlns:xlink="http://www.w3.org/1999/xlink" width="40" height="40" viewBox="0 0 40 40">
<path d="M10.152 6.1c0 2.126-1.57 3.848-4.152 3.848-2.43 0-4-1.722-4-3.848 0-2.176 1.622-3.848 4.102-3.848s4 1.672 4.050 3.848zM2.204 37.748v-24.76h7.696v24.76h-7.696zM14.506 20.886c0-3.088-0.102-5.67-0.204-7.898h6.684l0.356 3.444h0.152c1.012-1.622 3.494-4 7.646-4 5.062 0 8.86 3.392 8.86 10.684v14.634h-7.696v-13.722c0-3.19-1.116-5.368-3.9-5.368-2.126 0-3.39 1.468-3.948 2.886-0.204 0.506-0.254 1.214-0.254 1.924v14.28h-7.696v-16.864z" fill="#000000"></path>
</svg>
