<?xml version="1.0" encoding="utf-8"?>
<!-- Generated by IcoMoon.io -->
<!DOCTYPE svg PUBLIC "-//W3C//DTD SVG 1.1//EN" "http://www.w3.org/Graphics/SVG/1.1/DTD/svg11.dtd">
<svg version="1.1" xmlns="http://www.w3.org/2000/svg" xmlns:xlink="http://www.w3.org/1999/xlink" width="40" height="40" viewBox="0 0 40 40">
<path d="M37.388 5.27c-0.686 0.242-34.642 12.206-35.31 12.442-0.568 0.2-0.696 0.69-0.020 0.958 0.802 0.322 7.592 3.042 7.592 3.042h-0.002l4.502 1.804c0 0 21.674-15.918 21.968-16.132 0.294-0.216 0.636 0.19 0.422 0.422-0.214 0.234-15.742 17.028-15.742 17.028-0.002 0-0.002 0-0.002 0l-0.904 1.008 1.198 0.644c0 0 9.3 5.006 9.962 5.364 0.58 0.312 1.336 0.052 1.504-0.67 0.198-0.852 5.69-24.524 5.812-25.048 0.16-0.686-0.292-1.104-0.98-0.862zM14.11 34.324c0 0.494 0.278 0.63 0.662 0.282 0.5-0.456 5.698-5.12 5.698-5.12l-6.36-3.292v8.13z" fill="#000000"></path>
</svg>
