<?xml version="1.0" encoding="utf-8"?>
<!-- Generated by IcoMoon.io -->
<!DOCTYPE svg PUBLIC "-//W3C//DTD SVG 1.1//EN" "http://www.w3.org/Graphics/SVG/1.1/DTD/svg11.dtd">
<svg version="1.1" xmlns="http://www.w3.org/2000/svg" xmlns:xlink="http://www.w3.org/1999/xlink" width="40" height="40" viewBox="0 0 40 40">
<path d="M17.232 26.456c-1.050 5.506-2.332 10.786-6.132 13.544-1.172-8.324 1.722-14.574 3.066-21.21-2.292-3.86 0.276-11.624 5.112-9.71 5.95 2.354-5.152 14.346 2.3 15.844 7.782 1.564 10.958-13.5 6.134-18.398-6.972-7.076-20.296-0.164-18.656 9.962 0.398 2.476 2.956 3.228 1.022 6.644-4.462-0.988-5.794-4.508-5.622-9.2 0.276-7.678 6.9-13.054 13.544-13.798 8.404-0.942 16.29 3.084 17.376 10.988 1.226 8.92-3.79 18.582-12.778 17.886-2.434-0.186-3.456-1.392-5.366-2.552z" fill="#000000"></path>
</svg>
