<?xml version="1.0" encoding="utf-8"?>
<!-- Generated by IcoMoon.io -->
<!DOCTYPE svg PUBLIC "-//W3C//DTD SVG 1.1//EN" "http://www.w3.org/Graphics/SVG/1.1/DTD/svg11.dtd">
<svg version="1.1" xmlns="http://www.w3.org/2000/svg" xmlns:xlink="http://www.w3.org/1999/xlink" width="40" height="40" viewBox="0 0 40 40">
<path d="M13.6 20c0 3.534 2.866 6.4 6.4 6.4s6.4-2.868 6.4-6.4c0-3.534-2.866-6.4-6.4-6.4s-6.4 2.866-6.4 6.4zM9.058 17.6c1.098-5.032 5.58-8.8 10.942-8.8 3.094 0 5.892 1.254 7.918 3.28 0.938 0.938 2.458 0.938 3.396 0 0.936-0.938 0.936-2.458 0-3.394-2.896-2.894-6.896-4.686-11.314-4.686-7.164 0-13.228 4.708-15.266 11.2h-4.734v4.8h6.4c1.998 0 2.488-1.626 2.658-2.4zM33.6 20c-1.996 0-2.488 1.626-2.658 2.4-1.098 5.032-5.578 8.8-10.942 8.8-3.092 0-5.892-1.252-7.918-3.28-0.938-0.938-2.458-0.938-3.394 0s-0.938 2.458 0 3.394c2.894 2.894 6.894 4.686 11.312 4.686 7.164 0 13.228-4.708 15.266-11.2h4.734v-4.8h-6.4z" fill="#000000"></path>
</svg>
