<?xml version="1.0" encoding="utf-8"?>
<!-- Generated by IcoMoon.io -->
<!DOCTYPE svg PUBLIC "-//W3C//DTD SVG 1.1//EN" "http://www.w3.org/Graphics/SVG/1.1/DTD/svg11.dtd">
<svg version="1.1" xmlns="http://www.w3.org/2000/svg" xmlns:xlink="http://www.w3.org/1999/xlink" width="40" height="40" viewBox="0 0 40 40">
<path d="M1.344 26.912l0.656-2.8-0.656-2.894c-0.018-0.086-0.182-0.152-0.384-0.152-0.204 0-0.368 0.066-0.384 0.152l-0.576 2.894 0.578 2.8c0.016 0.088 0.18 0.152 0.384 0.152 0.2 0 0.364-0.064 0.382-0.152zM5.444 28.466l0.556-4.328-0.556-6.694c-0.016-0.172-0.224-0.306-0.476-0.306-0.254 0-0.462 0.132-0.474 0.304l-0.494 6.696 0.494 4.328c0.012 0.17 0.22 0.302 0.474 0.302 0.252 0.002 0.46-0.132 0.476-0.302zM9.536 28.396l0.464-4.256-0.464-8.914c-0.012-0.208-0.26-0.374-0.562-0.374-0.304 0-0.552 0.164-0.562 0.374l-0.412 8.914 0.412 4.258c0.010 0.208 0.258 0.372 0.562 0.372 0.302 0 0.55-0.164 0.562-0.374zM13.62 28.332l0.38-4.19-0.38-8.98c-0.010-0.248-0.29-0.444-0.64-0.444-0.352 0-0.632 0.196-0.642 0.444l-0.338 8.98 0.34 4.19c0.006 0.246 0.288 0.442 0.64 0.442 0.35 0 0.63-0.192 0.64-0.442zM17.7 28.28l0.3-4.136-0.3-10.296c-0.006-0.284-0.328-0.514-0.716-0.514s-0.708 0.23-0.714 0.514l-0.27 10.292c0 0.006 0.27 4.138 0.27 4.138 0.006 0.28 0.326 0.51 0.714 0.51 0.388 0.002 0.71-0.226 0.716-0.508zM20.556 28.792c0.012 0 14.198 0.008 14.29 0.008 2.848 0 5.154-2.232 5.154-4.986s-2.306-4.986-5.154-4.986c-0.708 0-1.38 0.138-1.994 0.388-0.41-4.492-4.308-8.016-9.060-8.016-1.162 0-2.296 0.22-3.296 0.596-0.388 0.146-0.494 0.294-0.496 0.584v15.822c0.004 0.306 0.248 0.56 0.556 0.59z" fill="#000000"></path>
</svg>
