<?xml version="1.0" encoding="utf-8"?>
<!-- Generated by IcoMoon.io -->
<!DOCTYPE svg PUBLIC "-//W3C//DTD SVG 1.1//EN" "http://www.w3.org/Graphics/SVG/1.1/DTD/svg11.dtd">
<svg version="1.1" xmlns="http://www.w3.org/2000/svg" xmlns:xlink="http://www.w3.org/1999/xlink" width="40" height="40" viewBox="0 0 40 40">
<path d="M12.706 25.276c0.262 0.71-7.080 7.268-2.796 12.582 1.004 1.244 4.402-5.95 9.23-9.208 2.662-1.796 8.86-5.622 8.86-7.734v-13.68c0-2.544-9.826-5.236-17.296-5.236-2.738 0-6.704 17.15-6.704 19.876 0 2.734 8.442 2.686 8.706 3.4zM30 25.084c1.316 0 6-0.798 6-6.244v-9.694c0-5.444-4.684-6.044-6-6.044-1.314 0 2 1.146 2 4.518v12.746c0 3.536-3.314 4.718-2 4.718z" fill="#000000"></path>
</svg>
