<?xml version="1.0" encoding="utf-8"?>
<!-- Generated by IcoMoon.io -->
<!DOCTYPE svg PUBLIC "-//W3C//DTD SVG 1.1//EN" "http://www.w3.org/Graphics/SVG/1.1/DTD/svg11.dtd">
<svg version="1.1" xmlns="http://www.w3.org/2000/svg" xmlns:xlink="http://www.w3.org/1999/xlink" width="40" height="40" viewBox="0 0 40 40">
<path d="M30.426 15.278c-0.55 0-1.092 0.048-1.618 0.136-1.312-4.29-5.376-7.416-10.192-7.416-5.876 0-10.638 4.656-10.638 10.4 0 0.512 0.040 1.016 0.114 1.51-0.282-0.032-0.566-0.054-0.858-0.054-3.994 0-7.234 3.168-7.234 7.072 0 3.906 3.24 7.072 7.234 7.072h23.192c5.29 0 9.574-4.192 9.574-9.36s-4.286-9.36-9.574-9.36zM22.744 23.9c-0.99 1.408-5.23 5.778-5.41 5.962-0.208 0.256-0.782 0.686-1.326 0.332-0.156-0.102-0.344-0.306-0.344-0.708 0-0.386 0.176-0.78 0.198-0.824l2.066-4.572c-0.388-0.154-1.054-0.424-1.572-0.65l-0.138-0.060c-0.524-0.22-1.176-0.498-1.176-1.216 0-0.342 0.164-0.742 0.498-1.218 0.99-1.408 5.23-5.776 5.41-5.962 0.208-0.256 0.78-0.686 1.326-0.334 0.156 0.102 0.344 0.306 0.344 0.708 0 0.386-0.176 0.78-0.198 0.824l-2.066 4.572c0.388 0.156 1.054 0.426 1.572 0.65l0.136 0.058c0.524 0.222 1.176 0.5 1.176 1.218 0.002 0.346-0.162 0.744-0.496 1.22z" fill="#000000"></path>
</svg>
