<?xml version="1.0" encoding="utf-8"?>
<!-- Generated by IcoMoon.io -->
<!DOCTYPE svg PUBLIC "-//W3C//DTD SVG 1.1//EN" "http://www.w3.org/Graphics/SVG/1.1/DTD/svg11.dtd">
<svg version="1.1" xmlns="http://www.w3.org/2000/svg" xmlns:xlink="http://www.w3.org/1999/xlink" width="40" height="40" viewBox="0 0 40 40">
<path d="M29.64 28.896c-4.93-1.796-6.506-3.312-6.506-6.558 0-1.948 1.506-1.312 2.166-4.88 0.274-1.48 1.604-0.024 1.86-3.402 0-1.346-0.726-1.682-0.726-1.682s0.37-1.994 0.514-3.526c0.176-1.912-1.104-6.848-7.948-6.848-6.842 0-8.126 4.936-7.946 6.848 0.144 1.532 0.514 3.526 0.514 3.526s-0.728 0.334-0.728 1.682c0.254 3.378 1.584 1.922 1.858 3.402 0.662 3.568 2.168 2.932 2.168 4.88 0 3.246-1.576 4.762-6.506 6.558-4.948 1.8-8.16 3.638-8.16 4.892 0 1.252 0 4.21 0 4.21h37.6c0 0 0-2.958 0-4.21s-3.214-3.090-8.16-4.892z" fill="#000000"></path>
</svg>
