<?xml version="1.0" encoding="utf-8"?>
<!-- Generated by IcoMoon.io -->
<!DOCTYPE svg PUBLIC "-//W3C//DTD SVG 1.1//EN" "http://www.w3.org/Graphics/SVG/1.1/DTD/svg11.dtd">
<svg version="1.1" xmlns="http://www.w3.org/2000/svg" xmlns:xlink="http://www.w3.org/1999/xlink" width="40" height="40" viewBox="0 0 40 40">
<path d="M40 37.6c0 0-0.078-7.574-0.542-8.358-0.69-1.17-2.292-1.972-5.268-3.216-2.966-1.24-3.916-2.288-3.916-4.526 0-1.346 0.906-0.906 1.304-3.368 0.164-1.022 0.964-0.018 1.118-2.348 0-0.93-0.436-1.162-0.436-1.162s0.22-1.376 0.308-2.434c0.108-1.32-0.666-4.726-4.784-4.726s-4.888 3.408-4.782 4.726c0.086 1.058 0.306 2.434 0.306 2.434s-0.436 0.232-0.436 1.162c0.154 2.332 0.954 1.328 1.12 2.348 0.396 2.462 1.302 2.022 1.302 3.368 0 1.522-0.44 2.494-1.654 3.348 6.48 3.244 7.35 3.906 7.35 6.806v5.946h9.010zM20.448 27.15c-3.958-1.652-5.22-3.048-5.22-6.034 0-1.792 1.208-1.208 1.738-4.492 0.218-1.362 1.288-0.022 1.49-3.13 0-1.24-0.582-1.548-0.582-1.548s0.296-1.834 0.412-3.246c0.144-1.756-0.888-6.3-6.378-6.3s-6.52 4.542-6.376 6.3c0.116 1.412 0.41 3.246 0.41 3.246s-0.58 0.308-0.58 1.548c0.206 3.11 1.272 1.77 1.492 3.13 0.53 3.284 1.738 2.698 1.738 4.492 0 2.986-1.266 4.382-5.22 6.034-1.206 0.504-3.372 1.286-3.372 3.162v7.288h27.788c0 0 0-4.31 0-5.462 0-1.714-3.374-3.328-7.34-4.988z" fill="#000000"></path>
</svg>
