<?xml version="1.0" encoding="utf-8"?>
<!-- Generated by IcoMoon.io -->
<!DOCTYPE svg PUBLIC "-//W3C//DTD SVG 1.1//EN" "http://www.w3.org/Graphics/SVG/1.1/DTD/svg11.dtd">
<svg version="1.1" xmlns="http://www.w3.org/2000/svg" xmlns:xlink="http://www.w3.org/1999/xlink" width="40" height="40" viewBox="0 0 40 40">
<path d="M24.754 28.896c-4.982-1.796-6.574-3.312-6.574-6.558 0-1.948 1.522-1.312 2.19-4.88 0.278-1.48 1.622-0.024 1.876-3.402 0-1.346-0.732-1.682-0.732-1.682s0.374-1.994 0.518-3.526c0.18-1.912-1.116-6.848-8.032-6.848s-8.212 4.936-8.032 6.848c0.146 1.534 0.52 3.526 0.52 3.526s-0.734 0.334-0.734 1.682c0.258 3.378 1.602 1.922 1.876 3.402 0.67 3.568 2.192 2.932 2.192 4.88 0 3.246-1.594 4.762-6.576 6.558-0.6 0.214-2.030 0.55-3.246 1.076v8.028h32c0 0 0-2.958 0-4.21s-2.246-3.092-7.246-4.894zM34 18v-6h-4v6h-6v4h6v6h4v-6h6v-4h-6z" fill="#000000"></path>
</svg>
