<?xml version="1.0" encoding="utf-8"?>
<!-- Generated by IcoMoon.io -->
<!DOCTYPE svg PUBLIC "-//W3C//DTD SVG 1.1//EN" "http://www.w3.org/Graphics/SVG/1.1/DTD/svg11.dtd">
<svg version="1.1" xmlns="http://www.w3.org/2000/svg" xmlns:xlink="http://www.w3.org/1999/xlink" width="60" height="60" viewBox="0 0 60 60">
<path d="M49.944 15.429l-26.994-13.917c-3.699-1.947-10.989 1.815-13.083 5.127-0.933 1.482-0.867 2.55-0.867 3.156l0.333 31.425c0.021 0.669 0.864 1.566 1.581 2.010 1.497 0.918 24.18 15.075 24.819 15.477 0.345 0.216 0.756 0.315 1.158 0.315 0.342 0 0.687-0.075 0.999-0.231 0.684-0.336 1.11-0.984 1.11-1.695v-33.003c0-0.687-0.402-1.32-1.056-1.665l-24.534-13.698c0.276-0.54 1.368-1.68 3.375-2.73 2.115-1.11 3.696-0.69 4.059-0.549 0 0 23.55 12.603 24.27 12.978 0.717 0.375 0.732 0.432 0.732 1.071 0 0.642 0 31.32 0 31.32 0 1.563 1.584 2.202 2.751 2.202 1.161 0 2.403-1.14 2.403-2.202v-33.726c0-0.687-0.405-1.323-1.056-1.665z" fill="#000000"></path>
</svg>
