<?xml version="1.0" encoding="utf-8"?>
<!-- Generated by IcoMoon.io -->
<!DOCTYPE svg PUBLIC "-//W3C//DTD SVG 1.1//EN" "http://www.w3.org/Graphics/SVG/1.1/DTD/svg11.dtd">
<svg version="1.1" xmlns="http://www.w3.org/2000/svg" xmlns:xlink="http://www.w3.org/1999/xlink" width="60" height="60" viewBox="0 0 60 60">
<path d="M30 24c-4.968 0-9 4.032-9 9 0 4.971 4.032 9 9 9 4.971 0 9-4.029 9-9 0-4.968-4.029-9-9-9zM54 15h-7.197c-0.99 0-2.058-0.768-2.37-1.707l-1.86-5.583c-0.318-0.942-1.383-1.71-2.373-1.71h-20.4c-0.99 0-2.058 0.768-2.367 1.707l-1.866 5.586c-0.312 0.939-1.377 1.707-2.367 1.707h-7.2c-3.3 0-6 2.7-6 6v27c0 3.3 2.7 6 6 6h48c3.303 0 6-2.7 6-6v-27c0-3.3-2.697-6-6-6zM30 48c-8.286 0-15-6.714-15-15 0-8.283 6.714-15 15-15 8.283 0 15 6.717 15 15 0 8.286-6.717 15-15 15zM51.9 25.194c-1.158 0-2.097-0.939-2.097-2.1s0.939-2.1 2.097-2.1c1.161 0 2.1 0.939 2.1 2.1s-0.939 2.1-2.1 2.1z" fill="#000000"></path>
</svg>
