<?xml version="1.0" encoding="utf-8"?>
<!-- Generated by IcoMoon.io -->
<!DOCTYPE svg PUBLIC "-//W3C//DTD SVG 1.1//EN" "http://www.w3.org/Graphics/SVG/1.1/DTD/svg11.dtd">
<svg version="1.1" xmlns="http://www.w3.org/2000/svg" xmlns:xlink="http://www.w3.org/1999/xlink" width="60" height="60" viewBox="0 0 60 60">
<path d="M12 51c0 3.312 2.688 6 6 6 3.315 0 6-2.688 6-6s-2.685-6-6-6c-3.312 0-6 2.688-6 6zM42 51c0 3.312 2.688 6 6 6 3.315 0 6-2.688 6-6s-2.685-6-6-6c-3.312 0-6 2.688-6 6zM22.641 36.816l33.207-9.486c0.633-0.183 1.152-0.87 1.152-1.53v-16.5h-42.3v-5.1c0-0.66-0.537-1.2-1.2-1.2h-9.3c-0.66 0-1.2 0.54-1.2 1.2v4.8h5.829l5.904 27.171 0.57 2.829v4.5c0 0.66 0.54 1.2 1.197 1.2h39.303c0.657 0 1.197-0.54 1.197-1.2v-4.5h-33.744c-3.447 0-3.519-1.35-0.615-2.184z" fill="#000000"></path>
</svg>
