<?xml version="1.0" encoding="utf-8"?>
<!-- Generated by IcoMoon.io -->
<!DOCTYPE svg PUBLIC "-//W3C//DTD SVG 1.1//EN" "http://www.w3.org/Graphics/SVG/1.1/DTD/svg11.dtd">
<svg version="1.1" xmlns="http://www.w3.org/2000/svg" xmlns:xlink="http://www.w3.org/1999/xlink" width="60" height="60" viewBox="0 0 60 60">
<path d="M17.4 36.6v-18.6h-11.4c-3.3 0-6 2.7-6 6v18c0 3.3 2.7 6 6 6h3v9l9-9h15c3.3 0 6-2.7 6-6v-5.46c-0.192 0.042-0.396 0.063-0.6 0.063h-21zM54 3h-27c-3.3 0-6 2.7-6 6v24h21l9 9v-9h3c3.3 0 6-2.7 6-6v-18c0-3.3-2.7-6-6-6z" fill="#000000"></path>
</svg>
