<?xml version="1.0" encoding="utf-8"?>
<!-- Generated by IcoMoon.io -->
<!DOCTYPE svg PUBLIC "-//W3C//DTD SVG 1.1//EN" "http://www.w3.org/Graphics/SVG/1.1/DTD/svg11.dtd">
<svg version="1.1" xmlns="http://www.w3.org/2000/svg" xmlns:xlink="http://www.w3.org/1999/xlink" width="60" height="60" viewBox="0 0 60 60">
<path d="M50.355 30c0-3.144 1.935-5.625 4.845-7.329-0.528-1.752-1.218-3.435-2.073-5.016-3.27 0.855-5.913-0.426-8.133-2.646-2.226-2.223-2.907-4.869-2.052-8.133-1.581-0.855-3.258-1.554-5.016-2.076-1.704 2.913-4.785 4.848-7.926 4.848s-6.219-1.935-7.926-4.848c-1.758 0.522-3.435 1.221-5.016 2.073 0.852 3.267 0.174 5.913-2.049 8.136-2.223 2.22-4.869 3.501-8.133 2.649-0.855 1.578-1.551 3.261-2.076 5.013 2.913 1.704 4.848 4.185 4.848 7.329 0 3.141-1.935 6.222-4.848 7.929 0.525 1.755 1.221 3.435 2.076 5.016 3.267-0.855 5.91-0.174 8.133 2.049s2.901 4.866 2.049 8.133c1.581 0.855 3.261 1.554 5.016 2.076 1.707-2.916 4.785-4.848 7.926-4.848s6.225 1.935 7.929 4.848c1.758-0.525 3.435-1.221 5.016-2.076-0.855-3.267-0.177-5.91 2.052-8.133 2.22-2.22 4.863-3.501 8.133-2.649 0.855-1.581 1.548-3.261 2.073-5.016-2.913-1.707-4.848-4.188-4.848-7.329zM30 40.959c-6.051 0-10.956-4.908-10.956-10.959s4.905-10.959 10.956-10.959c6.054 0 10.959 4.908 10.959 10.959s-4.905 10.959-10.959 10.959z" fill="#000000"></path>
</svg>
