<?xml version="1.0" encoding="utf-8"?>
<!-- Generated by IcoMoon.io -->
<!DOCTYPE svg PUBLIC "-//W3C//DTD SVG 1.1//EN" "http://www.w3.org/Graphics/SVG/1.1/DTD/svg11.dtd">
<svg version="1.1" xmlns="http://www.w3.org/2000/svg" xmlns:xlink="http://www.w3.org/1999/xlink" width="60" height="60" viewBox="0 0 60 60">
<path d="M43.047 39.456l-8.274-9.456 8.274-9.456c1.407-1.407 1.407-3.687 0-5.091s-3.687-1.404-5.091 0l-7.956 9.093-7.953-9.090c-1.407-1.407-3.687-1.407-5.091 0s-1.404 3.687 0 5.091l8.271 9.453-8.274 9.456c-1.404 1.407-1.404 3.681 0 5.085 1.407 1.407 3.687 1.407 5.091 0l7.956-9.087 7.953 9.087c1.407 1.407 3.687 1.407 5.091 0s1.407-3.678 0.003-5.085z" fill="#000000"></path>
</svg>
