<?xml version="1.0" encoding="utf-8"?>
<!-- Generated by IcoMoon.io -->
<!DOCTYPE svg PUBLIC "-//W3C//DTD SVG 1.1//EN" "http://www.w3.org/Graphics/SVG/1.1/DTD/svg11.dtd">
<svg version="1.1" xmlns="http://www.w3.org/2000/svg" xmlns:xlink="http://www.w3.org/1999/xlink" width="60" height="60" viewBox="0 0 60 60">
<path d="M50.181 38.52c-2.532 4.092-10.605 7.083-20.181 7.083-9.57 0-17.649-2.991-20.178-7.083-0.537-0.867-0.822-0.402-0.822 0.027 0 0.432 0 6.006 0 6.006 0 5.817 9.402 11.847 21 11.847s21-6.030 21-11.847c0 0 0-5.574 0-6.006 0-0.429-0.288-0.894-0.819-0.027zM50.211 23.175c-2.487 3.618-10.596 6.27-20.211 6.27s-17.724-2.652-20.211-6.27c-0.516-0.747-0.789-0.342-0.789-0.003s0 7.068 0 7.068c0 5.289 9.402 9.573 21 9.573s21-4.284 21-9.573c0 0 0-6.729 0-7.068s-0.276-0.744-0.789 0.003zM30 3.6c-11.598 0-21 3.534-21 7.896v3.777c0 4.626 9.402 8.376 21 8.376s21-3.75 21-8.376v-3.774c0-4.365-9.402-7.899-21-7.899z" fill="#000000"></path>
</svg>
