<?xml version="1.0" encoding="utf-8"?>
<!-- Generated by IcoMoon.io -->
<!DOCTYPE svg PUBLIC "-//W3C//DTD SVG 1.1//EN" "http://www.w3.org/Graphics/SVG/1.1/DTD/svg11.dtd">
<svg version="1.1" xmlns="http://www.w3.org/2000/svg" xmlns:xlink="http://www.w3.org/1999/xlink" width="60" height="60" viewBox="0 0 60 60">
<path d="M25.5 3h-2.697c-0.663 0-1.203 0.54-1.203 1.2v11.4h-10.608c-0.495 0-1.11 0.114-1.698 0.294-0.594 0.183-1.161 0.435-1.566 0.711l-7.125 4.89c-0.402 0.276-0.603 0.639-0.603 1.005s0.201 0.729 0.603 1.005l7.125 4.89c0.405 0.276 0.972 0.528 1.566 0.711 0.588 0.18 1.203 0.294 1.698 0.294h10.608v26.4c0 0.663 0.54 1.2 1.2 1.2h2.7c0.663 0 1.2-0.54 1.2-1.2v-51.6c0-0.66-0.537-1.2-1.2-1.2zM59.397 15.498l-7.125-4.89c-0.402-0.276-0.969-0.528-1.563-0.711-0.591-0.183-1.206-0.297-1.701-0.297h-20.508l2.403 13.8h18.105c0.495 0 1.11-0.114 1.701-0.294s1.161-0.435 1.563-0.708l7.125-4.89c0.405-0.279 0.603-0.642 0.603-1.008s-0.198-0.729-0.603-1.002z" fill="#000000"></path>
</svg>
