<?xml version="1.0" encoding="utf-8"?>
<!-- Generated by IcoMoon.io -->
<!DOCTYPE svg PUBLIC "-//W3C//DTD SVG 1.1//EN" "http://www.w3.org/Graphics/SVG/1.1/DTD/svg11.dtd">
<svg version="1.1" xmlns="http://www.w3.org/2000/svg" xmlns:xlink="http://www.w3.org/1999/xlink" width="60" height="60" viewBox="0 0 60 60">
<path d="M30.609 1.683c-0.078-0.642-1.14-0.642-1.218 0-2.649 21.324-16.191 25.719-16.191 40.539 0 9.153 7.689 16.575 16.8 16.575s16.8-7.425 16.8-16.575c0-14.82-13.542-19.215-16.191-40.539zM28.053 25.254c-0.18 0.657-0.369 1.335-0.564 2.031-1.203 4.272-2.568 9.117-2.568 14.718 0 3.036-1.794 4.113-3.471 4.113-1.914 0-3.468-1.563-3.468-3.498 0-6.621 3.189-10.944 6.003-14.76 0.882-1.194 1.713-2.322 2.391-3.45 0.309-0.513 1.143-0.492 1.521 0.018 0.171 0.246 0.231 0.546 0.156 0.828z" fill="#000000"></path>
</svg>
