<?xml version="1.0" encoding="utf-8"?>
<!-- Generated by IcoMoon.io -->
<!DOCTYPE svg PUBLIC "-//W3C//DTD SVG 1.1//EN" "http://www.w3.org/Graphics/SVG/1.1/DTD/svg11.dtd">
<svg version="1.1" xmlns="http://www.w3.org/2000/svg" xmlns:xlink="http://www.w3.org/1999/xlink" width="60" height="60" viewBox="0 0 60 60">
<path d="M11.865 0.279c-0.045-0.372-0.66-0.372-0.702 0-1.533 12.345-9.363 14.889-9.363 23.469 0 5.301 4.446 9.597 9.714 9.597s9.714-4.296 9.714-9.597c0-8.58-7.83-11.124-9.363-23.469zM48.837 0.279c-0.048-0.372-0.657-0.372-0.702 0-1.533 12.345-9.363 14.889-9.363 23.469 0 5.301 4.446 9.597 9.714 9.597s9.714-4.296 9.714-9.597c0-8.58-7.83-11.124-9.363-23.469zM29.649 26.934c-1.533 12.345-9.363 14.886-9.363 23.466 0 5.304 4.446 9.6 9.714 9.6s9.714-4.299 9.714-9.6c0-8.577-7.83-11.121-9.363-23.466-0.045-0.375-0.657-0.375-0.702 0z" fill="#000000"></path>
</svg>
