<?xml version="1.0" encoding="utf-8"?>
<!-- Generated by IcoMoon.io -->
<!DOCTYPE svg PUBLIC "-//W3C//DTD SVG 1.1//EN" "http://www.w3.org/Graphics/SVG/1.1/DTD/svg11.dtd">
<svg version="1.1" xmlns="http://www.w3.org/2000/svg" xmlns:xlink="http://www.w3.org/1999/xlink" width="60" height="60" viewBox="0 0 60 60">
<path d="M32.85 41.388v-22.779c2.559-1.104 4.35-3.648 4.35-6.609 0-3.978-3.225-7.2-7.2-7.2s-7.2 3.222-7.2 7.2c0 2.961 1.794 5.505 4.35 6.609v22.779c-2.559 1.104-4.35 3.648-4.35 6.612 0 3.975 3.225 7.2 7.2 7.2s7.2-3.225 7.2-7.2c0-2.964-1.791-5.508-4.35-6.612zM25.845 12c0-2.295 1.86-4.155 4.155-4.155s4.155 1.86 4.155 4.155-1.86 4.155-4.155 4.155-4.155-1.86-4.155-4.155zM30 52.155c-2.295 0-4.155-1.86-4.155-4.155s1.86-4.155 4.155-4.155 4.155 1.86 4.155 4.155-1.86 4.155-4.155 4.155z" fill="#000000"></path>
</svg>
