<?xml version="1.0" encoding="utf-8"?>
<!-- Generated by IcoMoon.io -->
<!DOCTYPE svg PUBLIC "-//W3C//DTD SVG 1.1//EN" "http://www.w3.org/Graphics/SVG/1.1/DTD/svg11.dtd">
<svg version="1.1" xmlns="http://www.w3.org/2000/svg" xmlns:xlink="http://www.w3.org/1999/xlink" width="60" height="60" viewBox="0 0 60 60">
<path d="M53.847 44.388v-6.888c0-4.161-2.754-10.35-10.347-10.35h-6c-4.236 0-4.629-2.076-4.65-3.15v-8.388c2.559-1.107 4.35-3.651 4.35-6.612 0-3.975-3.222-7.2-7.2-7.2s-7.2 3.225-7.2 7.2c0 2.961 1.791 5.505 4.35 6.612v8.388c0 0.777-0.225 3.15-4.65 3.15h-6c-7.593 0-10.35 6.189-10.35 10.35v6.888c-2.559 1.104-4.35 3.651-4.35 6.612 0 3.975 3.222 7.2 7.2 7.2 3.975 0 7.2-3.225 7.2-7.2 0-2.961-1.791-5.508-4.35-6.612v-6.888c0-0.777 0.225-4.65 4.65-4.65h6c1.821 0 3.357-0.276 4.65-0.744v12.282c-2.559 1.104-4.35 3.651-4.35 6.612 0 3.975 3.222 7.2 7.2 7.2s7.2-3.225 7.2-7.2c0-2.961-1.794-5.508-4.353-6.612v-12.282c1.293 0.468 2.829 0.744 4.65 0.744h6c4.236 0 4.629 3.576 4.653 4.65v6.888c-2.559 1.104-4.35 3.651-4.35 6.612 0 3.975 3.222 7.2 7.2 7.2s7.2-3.225 7.2-7.2c0-2.961-1.791-5.508-4.353-6.612zM13.155 51c0 2.295-1.86 4.155-4.155 4.155s-4.155-1.86-4.155-4.155 1.86-4.155 4.155-4.155 4.155 1.86 4.155 4.155zM25.845 9c0-2.295 1.863-4.155 4.155-4.155s4.152 1.86 4.152 4.155-1.86 4.155-4.152 4.155c-2.292 0-4.155-1.86-4.155-4.155zM34.155 51c0 2.295-1.863 4.155-4.152 4.155-2.295 0-4.155-1.86-4.155-4.155s1.86-4.155 4.152-4.155c2.292 0 4.155 1.86 4.155 4.155zM51 55.155c-2.292 0-4.155-1.86-4.155-4.155s1.863-4.155 4.155-4.155 4.155 1.86 4.155 4.155-1.863 4.155-4.155 4.155z" fill="#000000"></path>
</svg>
