<?xml version="1.0" encoding="utf-8"?>
<!-- Generated by IcoMoon.io -->
<!DOCTYPE svg PUBLIC "-//W3C//DTD SVG 1.1//EN" "http://www.w3.org/Graphics/SVG/1.1/DTD/svg11.dtd">
<svg version="1.1" xmlns="http://www.w3.org/2000/svg" xmlns:xlink="http://www.w3.org/1999/xlink" width="60" height="60" viewBox="0 0 60 60">
<path d="M9.906 36.714c1.392 5.643 3.162 8.103 9.066 10.686 5.907 2.58 8.712 5.4 11.028 5.4s4.941-2.466 10.848-5.052c5.907-2.577 4.332-3.369 5.724-9.006l-16.572 8.058-20.094-10.086zM58.533 22.008l-24.975-13.986c-1.956-1.095-5.157-1.095-7.113 0l-24.978 13.986c-1.956 1.095-1.956 2.889 0 3.984l24.975 13.986c1.956 1.095 5.157 1.095 7.113 0l16.146-9.042-17.508-4.101c-0.672 0.168-1.413 0.261-2.193 0.261-3.153 0-5.709-1.521-5.709-3.396s2.556-3.399 5.709-3.399c2.448 0 4.533 0.921 5.343 2.208l18.543 6.084 4.647-2.601c1.956-1.095 1.956-2.889 0-3.984zM50.901 48.516c-0.189 1.149 3.849 3.048 4.233-0.327 1.737-15.213-1.248-19.593-1.248-19.593l-4.185 2.343c0-0.003 3.549 3.375 1.2 17.577z" fill="#000000"></path>
</svg>
