<?xml version="1.0" encoding="utf-8"?>
<!-- Generated by IcoMoon.io -->
<!DOCTYPE svg PUBLIC "-//W3C//DTD SVG 1.1//EN" "http://www.w3.org/Graphics/SVG/1.1/DTD/svg11.dtd">
<svg version="1.1" xmlns="http://www.w3.org/2000/svg" xmlns:xlink="http://www.w3.org/1999/xlink" width="60" height="60" viewBox="0 0 60 60">
<path d="M21.555 57.51c2.367 1.53 5.109 2.565 8.445 2.484 3.336 0.081 6.075-0.954 8.442-2.484v-6.21h-16.887v6.21zM38.088 47.697c0-13.068 13.893-17.25 12.852-30.267-0.654-8.214-6.219-17.43-20.94-17.43s-20.286 9.216-20.94 17.43c-1.041 13.020 12.849 17.199 12.849 30.267h16.179zM15.414 17.904c0.624-7.797 5.928-11.751 14.586-11.751s13.962 3.954 14.583 11.751c0.339 4.269-2.115 7.116-5.43 11.778-2.439 3.438-5.325 7.497-6.675 12.783h-4.959c-1.35-5.286-4.233-9.342-6.678-12.783-3.312-4.665-5.766-7.509-5.427-11.778z" fill="#000000"></path>
</svg>
