<?xml version="1.0" encoding="utf-8"?>
<!-- Generated by IcoMoon.io -->
<!DOCTYPE svg PUBLIC "-//W3C//DTD SVG 1.1//EN" "http://www.w3.org/Graphics/SVG/1.1/DTD/svg11.dtd">
<svg version="1.1" xmlns="http://www.w3.org/2000/svg" xmlns:xlink="http://www.w3.org/1999/xlink" width="60" height="60" viewBox="0 0 60 60">
<path d="M47.4 24h-5.4v-7.2c0-8.691-4.005-13.8-12-13.8-7.998 0-12 5.109-12 13.8v1.2h6v-2.4c0-4.335 2.391-6.6 6-6.6 3.606 0 6 2.265 6 6.6v8.4h-24c-1.659 0-3 1.941-3 3.6v23.4c0 1.65 1.287 3.414 2.856 3.921l3.588 1.161c1.572 0.504 4.206 0.918 5.856 0.918h17.4c1.653 0 4.287-0.414 5.856-0.921l3.588-1.161c1.569-0.504 2.856-2.268 2.856-3.918v-23.4c0-1.659-1.941-3.6-3.6-3.6z" fill="#000000"></path>
</svg>
