<?xml version="1.0" encoding="utf-8"?>
<!-- Generated by IcoMoon.io -->
<!DOCTYPE svg PUBLIC "-//W3C//DTD SVG 1.1//EN" "http://www.w3.org/Graphics/SVG/1.1/DTD/svg11.dtd">
<svg version="1.1" xmlns="http://www.w3.org/2000/svg" xmlns:xlink="http://www.w3.org/1999/xlink" width="60" height="60" viewBox="0 0 60 60">
<path d="M47.403 24.006h-5.403v-4.2c0-8.691-4.002-13.8-12-13.8-7.995 0-12 5.109-12 13.8v4.2h-6c-1.656 0-3 1.941-3 3.6v23.4c0 1.65 1.287 3.417 2.856 3.921l3.588 1.161c1.569 0.507 4.203 0.921 5.856 0.921h17.4c1.65 0 4.287-0.414 5.856-0.921l3.588-1.161c1.572-0.504 2.856-2.271 2.856-3.921v-23.4c0-1.659-1.941-3.6-3.597-3.6zM24 18.606c0-4.335 2.394-6.6 6-6.6 3.609 0 6 2.265 6 6.6v5.4h-12v-5.4z" fill="#000000"></path>
</svg>
