<?xml version="1.0" encoding="utf-8"?>
<!-- Generated by IcoMoon.io -->
<!DOCTYPE svg PUBLIC "-//W3C//DTD SVG 1.1//EN" "http://www.w3.org/Graphics/SVG/1.1/DTD/svg11.dtd">
<svg version="1.1" xmlns="http://www.w3.org/2000/svg" xmlns:xlink="http://www.w3.org/1999/xlink" width="60" height="60" viewBox="0 0 60 60">
<path d="M51.669 21.087c-4.749-11.055-12.396-19.473-16.263-17.898-6.567 2.67 3.915 15.492-28.338 28.602-2.787 1.131-3.492 5.664-2.325 8.373 1.164 2.709 4.974 5.406 7.761 4.275 0.48-0.195 2.253-0.765 2.253-0.765 1.989 2.67 4.071 1.086 4.812 2.784 0.888 2.040 2.817 6.471 3.471 7.977 0.66 1.506 2.148 2.904 3.228 2.493 1.074-0.411 4.743-1.809 6.147-2.34s1.74-1.785 1.311-2.772c-0.462-1.062-2.358-1.374-2.898-2.616-0.543-1.242-2.31-5.217-2.817-6.471-0.69-1.704 0.777-3.090 2.91-3.312 14.682-1.53 17.427 7.539 22.425 5.505 3.858-1.578 3.072-12.78-1.677-23.835zM50.016 39.018c-0.858 0.348-6.636-4.206-10.329-12.801-3.69-8.592-3.225-16.446-2.37-16.794 0.858-0.351 6.495 5.148 10.188 13.74 3.687 8.589 3.369 15.507 2.511 15.855z" fill="#000000"></path>
</svg>
