<?xml version="1.0" encoding="utf-8"?>
<!-- Generated by IcoMoon.io -->
<!DOCTYPE svg PUBLIC "-//W3C//DTD SVG 1.1//EN" "http://www.w3.org/Graphics/SVG/1.1/DTD/svg11.dtd">
<svg version="1.1" xmlns="http://www.w3.org/2000/svg" xmlns:xlink="http://www.w3.org/1999/xlink" width="60" height="60" viewBox="0 0 60 60">
<path d="M18.33 8.187v35.601c-1.938-0.405-4.194-0.252-6.432 0.576-5.031 1.869-6.807 6.42-5.472 10.158 1.332 3.741 5.271 5.253 10.302 3.384 4.272-1.587 7.071-5.103 6.999-8.421 0 0 0-18.879 0-29.409l21.303-4.881v22.59c-1.938-0.405-4.194-0.252-6.432 0.576-5.034 1.869-6.81 6.42-5.475 10.158 1.335 3.741 5.271 5.253 10.305 3.384 4.275-1.587 7.068-5.103 7.002-8.421v-42.192l-32.1 6.897z" fill="#000000"></path>
</svg>
