<?xml version="1.0" encoding="utf-8"?>
<!-- Generated by IcoMoon.io -->
<!DOCTYPE svg PUBLIC "-//W3C//DTD SVG 1.1//EN" "http://www.w3.org/Graphics/SVG/1.1/DTD/svg11.dtd">
<svg version="1.1" xmlns="http://www.w3.org/2000/svg" xmlns:xlink="http://www.w3.org/1999/xlink" width="60" height="60" viewBox="0 0 60 60">
<path d="M55.563 4.437c-1.17-1.173-3.069-1.173-4.242 0l-46.884 46.884c-1.173 1.173-1.173 3.072 0 4.242 0.585 0.585 1.353 0.879 2.121 0.879s1.536-0.294 2.121-0.879l46.884-46.884c1.173-1.173 1.173-3.075 0-4.242zM42.603 27.579c4.167 5.652 5.454 10.56 4.677 11.337-0.78 0.774-5.682-0.513-11.334-4.683l-16.578 16.581c12.558 5.514 28.881-6.048 31.815-8.982 2.775-2.769 0.291-9.933-5.568-17.265l-3.012 3.012zM26.001 23.817c-3.297-4.971-4.29-9.066-3.582-9.777 0.699-0.705 4.8 0.291 9.771 3.588l3.069-3.069c-6.792-5.022-13.185-6.999-15.768-4.407-2.787 2.778-13.347 17.631-9.696 29.871l16.206-16.206z" fill="#000000"></path>
</svg>
