<?xml version="1.0" encoding="utf-8"?>
<!-- Generated by IcoMoon.io -->
<!DOCTYPE svg PUBLIC "-//W3C//DTD SVG 1.1//EN" "http://www.w3.org/Graphics/SVG/1.1/DTD/svg11.dtd">
<svg version="1.1" xmlns="http://www.w3.org/2000/svg" xmlns:xlink="http://www.w3.org/1999/xlink" width="60" height="60" viewBox="0 0 60 60">
<path d="M56.070 37.038l-5.181-4.62c-1.5-1.338-1.5-3.522 0-4.86l5.181-4.617c1.5-1.338 1.098-2.583-0.891-2.772l-6.867-0.651c-1.989-0.189-3.060-1.899-2.376-3.801l3.645-10.146c0.684-1.902-0.153-2.595-1.857-1.539l-8.103 5.010c-1.704 1.056-3.906 0.48-4.893-1.281l-2.937-5.238c-0.984-1.761-2.616-1.77-3.621-0.021l-2.727 4.746c-1.005 1.749-3.315 2.496-5.133 1.659l-4.8-2.205c-1.821-0.834-3.219 0.132-3.111 2.154l0.261 4.845c0.108 2.019-1.383 4.101-3.312 4.62l-4.635 1.245c-1.929 0.522-2.283 2.040-0.783 3.378l5.181 4.617c1.5 1.335 1.5 3.522 0 4.857l-5.181 4.614c-1.5 1.341-1.104 2.631 0.879 2.871l6.285 0.762c1.983 0.246 3.090 2.016 2.457 3.933l-3.225 9.774c-0.633 1.923 0.27 2.673 2.004 1.665l7.389-4.272c1.737-1.008 4.068-0.45 5.184 1.224l3.069 4.611c1.113 1.683 2.79 1.587 3.717-0.204l2.697-5.196c0.933-1.794 3.159-2.526 4.947-1.629l5.202 2.601c1.794 0.897 3.171-0.024 3.063-2.046l-0.261-4.845c-0.108-2.022 1.383-4.101 3.312-4.623l4.632-1.242c1.935-0.525 2.289-2.043 0.789-3.378zM33 42.585h-6v-6.3h6v6.3zM33 32.988h-6v-15.6h6v15.6z" fill="#000000"></path>
</svg>
