<?xml version="1.0" encoding="utf-8"?>
<!-- Generated by IcoMoon.io -->
<!DOCTYPE svg PUBLIC "-//W3C//DTD SVG 1.1//EN" "http://www.w3.org/Graphics/SVG/1.1/DTD/svg11.dtd">
<svg version="1.1" xmlns="http://www.w3.org/2000/svg" xmlns:xlink="http://www.w3.org/1999/xlink" width="60" height="60" viewBox="0 0 60 60">
<path d="M52.056 13.695c-9.312-6.192-19.767-8.331-32.166-4.779-9.678 2.775-18.549 13.782-19.236 23.208-0.813 11.145 7.869 20.688 23.154 20.673 16.482-0.018 22.65-7.932 22.788-10.335 0.135-2.406-6.432-6.852-2.205-11.424 5.295-5.727 10.008-0.846 12.864-1.536 2.856-0.684 4.302-9.483-5.199-15.807zM32.934 41.649c-2.493 0-4.515-2.016-4.515-4.5 0-2.487 2.022-4.5 4.515-4.5s4.512 2.013 4.512 4.5c-0.003 2.484-2.019 4.5-4.512 4.5z" fill="#000000"></path>
</svg>
