<?xml version="1.0" encoding="utf-8"?>
<!-- Generated by IcoMoon.io -->
<!DOCTYPE svg PUBLIC "-//W3C//DTD SVG 1.1//EN" "http://www.w3.org/Graphics/SVG/1.1/DTD/svg11.dtd">
<svg version="1.1" xmlns="http://www.w3.org/2000/svg" xmlns:xlink="http://www.w3.org/1999/xlink" width="60" height="60" viewBox="0 0 60 60">
<path d="M20.4 30c0 5.301 4.299 9.6 9.6 9.6s9.6-4.302 9.6-9.6c0-5.301-4.299-9.6-9.6-9.6s-9.6 4.299-9.6 9.6zM13.587 26.4c1.647-7.548 8.37-13.2 16.413-13.2 4.641 0 8.838 1.881 11.877 4.92 1.407 1.407 3.687 1.407 5.094 0 1.404-1.407 1.404-3.687 0-5.091-4.344-4.341-10.344-7.029-16.971-7.029-10.746 0-19.842 7.062-22.899 16.8h-7.101v7.2h9.6c2.997 0 3.732-2.439 3.987-3.6zM50.4 30c-2.994 0-3.732 2.439-3.987 3.6-1.647 7.548-8.367 13.2-16.413 13.2-4.638 0-8.838-1.878-11.877-4.92-1.407-1.407-3.687-1.407-5.091 0s-1.407 3.687 0 5.091c4.341 4.341 10.341 7.029 16.968 7.029 10.746 0 19.842-7.062 22.899-16.8h7.101v-7.2h-9.6z" fill="#000000"></path>
</svg>
