<?xml version="1.0" encoding="utf-8"?>
<!-- Generated by IcoMoon.io -->
<!DOCTYPE svg PUBLIC "-//W3C//DTD SVG 1.1//EN" "http://www.w3.org/Graphics/SVG/1.1/DTD/svg11.dtd">
<svg version="1.1" xmlns="http://www.w3.org/2000/svg" xmlns:xlink="http://www.w3.org/1999/xlink" width="60" height="60" viewBox="0 0 60 60">
<path d="M45.279 20.082h2.121v6.039l12.6-10.8-12.6-10.8v7.161h-2.121c-11.079 0-17.328 8.211-22.842 15.456-4.959 6.516-9.24 12.144-16.158 12.144h-6.279v8.403h6.279c11.082 0 17.328-8.214 22.845-15.459 4.956-6.519 9.237-12.144 16.155-12.144zM16.233 25.374c0.471-0.612 0.948-1.236 1.431-1.869 1.173-1.542 2.412-3.168 3.753-4.788-3.963-3.702-8.745-6.435-15.138-6.435h-6.279v8.4h6.279c3.981 0 7.089 1.869 9.954 4.692zM47.4 39.879h-2.121c-4.221 0-7.458-2.097-10.47-5.214-0.303 0.393-0.603 0.792-0.909 1.194-1.323 1.734-2.748 3.603-4.317 5.448 4.071 3.972 9.003 6.972 15.696 6.972h2.121v7.2l12.6-10.8-12.6-10.806v6.006z" fill="#000000"></path>
</svg>
