<?xml version="1.0" encoding="utf-8"?>
<!-- Generated by IcoMoon.io -->
<!DOCTYPE svg PUBLIC "-//W3C//DTD SVG 1.1//EN" "http://www.w3.org/Graphics/SVG/1.1/DTD/svg11.dtd">
<svg version="1.1" xmlns="http://www.w3.org/2000/svg" xmlns:xlink="http://www.w3.org/1999/xlink" width="60" height="60" viewBox="0 0 60 60">
<path d="M13.194 15.783c-3.366 3.357-18.084 24.342-5.367 37.053 12.708 12.714 33.69-2.001 37.059-5.37 3.366-3.357-1.002-13.185-9.756-21.936-8.751-8.754-18.567-13.122-21.936-9.747zM40.983 44.55c-0.993 0.987-8.685-1.371-16.089-8.778-7.401-7.413-9.765-15.102-8.772-16.095 0.984-0.993 8.685 1.371 16.080 8.781 7.41 7.401 9.774 15.099 8.781 16.092zM41.436 20.907c0.768 0 1.536-0.294 2.121-0.879l5.715-5.718c1.173-1.173 1.173-3.069 0-4.242s-3.072-1.173-4.242 0l-5.715 5.718c-1.173 1.17-1.173 3.069 0 4.242 0.582 0.585 1.353 0.879 2.121 0.879zM30.633 13.485c0.465 0.261 0.966 0.384 1.464 0.384 1.050 0 2.067-0.555 2.619-1.536l3.243-5.79c0.81-1.446 0.294-3.276-1.152-4.083s-3.273-0.294-4.083 1.152l-3.243 5.79c-0.807 1.443-0.294 3.273 1.152 4.083zM56.877 22.53c-0.813-1.446-2.64-1.959-4.083-1.152l-5.79 3.243c-1.443 0.81-1.959 2.637-1.152 4.083 0.552 0.981 1.569 1.536 2.619 1.536 0.498 0 1.002-0.126 1.464-0.384l5.79-3.243c1.446-0.81 1.962-2.64 1.152-4.083z" fill="#000000"></path>
</svg>
