<?xml version="1.0" encoding="utf-8"?>
<!-- Generated by IcoMoon.io -->
<!DOCTYPE svg PUBLIC "-//W3C//DTD SVG 1.1//EN" "http://www.w3.org/Graphics/SVG/1.1/DTD/svg11.dtd">
<svg version="1.1" xmlns="http://www.w3.org/2000/svg" xmlns:xlink="http://www.w3.org/1999/xlink" width="60" height="60" viewBox="0 0 60 60">
<path d="M37.803 29.601v-26.601c0-1.656-1.344-3-3-3h-10.203c-1.659 0-2.4 1.344-2.4 3v26.601c-5.007 2.757-8.4 8.082-8.4 14.199 0 8.946 7.254 16.2 16.2 16.2s16.2-7.254 16.2-16.2c0-6.117-3.393-11.442-8.397-14.199zM30 54c-5.634 0-10.2-4.566-10.2-10.2 0-4.662 3.132-8.58 7.404-9.801v-21.999h6v22.119c4.062 1.344 6.999 5.169 6.999 9.681-0.003 5.634-4.569 10.2-10.203 10.2z" fill="#000000"></path>
</svg>
