<?xml version="1.0" encoding="utf-8"?>
<!-- Generated by IcoMoon.io -->
<!DOCTYPE svg PUBLIC "-//W3C//DTD SVG 1.1//EN" "http://www.w3.org/Graphics/SVG/1.1/DTD/svg11.dtd">
<svg version="1.1" xmlns="http://www.w3.org/2000/svg" xmlns:xlink="http://www.w3.org/1999/xlink" width="60" height="60" viewBox="0 0 60 60">
<path d="M40.944 22.089c-0.396-1.065 10.62-10.905 4.194-18.876-1.506-1.863-6.603 8.928-13.845 13.812-3.993 2.694-13.293 8.43-13.293 11.601v20.523c0 3.813 14.742 7.851 25.947 7.851 4.107 0 10.053-25.725 10.053-29.814 0-4.101-12.66-4.029-13.056-5.097zM15 22.374c-1.971 0-9 1.2-9 9.366v14.544c0 8.166 7.029 9.063 9 9.063s-3-1.716-3-6.777v-19.119c0-5.304 4.971-7.077 3-7.077z" fill="#000000"></path>
</svg>
