<?xml version="1.0" encoding="utf-8"?>
<!-- Generated by IcoMoon.io -->
<!DOCTYPE svg PUBLIC "-//W3C//DTD SVG 1.1//EN" "http://www.w3.org/Graphics/SVG/1.1/DTD/svg11.dtd">
<svg version="1.1" xmlns="http://www.w3.org/2000/svg" xmlns:xlink="http://www.w3.org/1999/xlink" width="60" height="60" viewBox="0 0 60 60">
<path d="M19.059 37.914c0.393 1.065-10.62 10.902-4.194 18.873 1.506 1.866 6.603-8.925 13.845-13.812 3.993-2.694 13.29-8.433 13.29-11.601v-20.52c0-3.816-14.739-7.854-25.944-7.854-4.107 0-10.056 25.725-10.056 29.814 0 4.101 12.663 4.029 13.059 5.1zM45 37.626c1.974 0 9-1.197 9-9.366v-14.541c0-8.166-7.026-9.066-9-9.066-1.971 0 3 1.719 3 6.777v19.119c0 5.304-4.971 7.077-3 7.077z" fill="#000000"></path>
</svg>
