<?xml version="1.0" encoding="utf-8"?>
<!-- Generated by IcoMoon.io -->
<!DOCTYPE svg PUBLIC "-//W3C//DTD SVG 1.1//EN" "http://www.w3.org/Graphics/SVG/1.1/DTD/svg11.dtd">
<svg version="1.1" xmlns="http://www.w3.org/2000/svg" xmlns:xlink="http://www.w3.org/1999/xlink" width="60" height="60" viewBox="0 0 60 60">
<path d="M45.639 22.917c-0.825 0-1.638 0.072-2.427 0.204-1.968-6.435-8.064-11.124-15.288-11.124-8.814 0-15.957 6.984-15.957 15.6 0 0.768 0.060 1.524 0.171 2.265-0.423-0.048-0.849-0.081-1.287-0.081-5.991 0-10.851 4.752-10.851 10.608 0 5.859 4.86 10.608 10.851 10.608h34.788c7.935 0 14.361-6.288 14.361-14.040s-6.429-14.040-14.361-14.040zM34.116 35.85c-1.485 2.112-7.845 8.667-8.115 8.943-0.312 0.384-1.173 1.029-1.989 0.498-0.234-0.153-0.516-0.459-0.516-1.062 0-0.579 0.264-1.17 0.297-1.236l3.099-6.858c-0.582-0.231-1.581-0.636-2.358-0.975l-0.207-0.090c-0.786-0.33-1.764-0.747-1.764-1.824 0-0.513 0.246-1.113 0.747-1.827 1.485-2.112 7.845-8.664 8.115-8.943 0.312-0.384 1.17-1.029 1.989-0.501 0.234 0.153 0.516 0.459 0.516 1.062 0 0.579-0.264 1.17-0.297 1.236l-3.099 6.858c0.582 0.234 1.581 0.639 2.358 0.975l0.204 0.087c0.786 0.333 1.764 0.75 1.764 1.827 0.003 0.519-0.243 1.116-0.744 1.83z" fill="#000000"></path>
</svg>
