<?xml version="1.0" encoding="utf-8"?>
<!-- Generated by IcoMoon.io -->
<!DOCTYPE svg PUBLIC "-//W3C//DTD SVG 1.1//EN" "http://www.w3.org/Graphics/SVG/1.1/DTD/svg11.dtd">
<svg version="1.1" xmlns="http://www.w3.org/2000/svg" xmlns:xlink="http://www.w3.org/1999/xlink" width="60" height="60" viewBox="0 0 60 60">
<path d="M14.718 34.626l10.656 10.656 19.551-19.551-10.659-10.656-19.548 19.551zM57.315 19.992l-4.536-4.533c-0.867 0.468-1.851 0.738-2.907 0.738-3.351 0-6.069-2.718-6.069-6.072 0-1.053 0.264-2.043 0.738-2.907l-4.536-4.533c-1.185-1.182-3.111-1.182-4.296 0l-33.024 33.027c-1.182 1.182-1.182 3.114 0 4.296l4.536 4.536c0.864-0.471 1.854-0.738 2.904-0.738 3.354 0 6.072 2.715 6.072 6.069 0 1.053-0.267 2.043-0.741 2.907l4.533 4.536c1.182 1.182 3.114 1.182 4.296 0l33.030-33.030c1.179-1.182 1.179-3.114 0-4.296zM25.374 50.157l-15.528-15.531 24.426-24.423 15.528 15.528-24.426 24.426z" fill="#000000"></path>
</svg>
