<?xml version="1.0" encoding="utf-8"?>
<!-- Generated by IcoMoon.io -->
<!DOCTYPE svg PUBLIC "-//W3C//DTD SVG 1.1//EN" "http://www.w3.org/Graphics/SVG/1.1/DTD/svg11.dtd">
<svg version="1.1" xmlns="http://www.w3.org/2000/svg" xmlns:xlink="http://www.w3.org/1999/xlink" width="60" height="60" viewBox="0 0 60 60">
<path d="M9.402 20.67c2.802-2.175 5.124-0.678 8.223 2.91 0.351 0.402 0.819-0.069 1.083-0.3 0.264-0.234 4.356-3.912 4.554-4.083 0.201-0.177 0.441-0.507 0.123-0.876s-1.482-1.875-2.229-2.85c-5.424-7.095 14.838-11.907 11.724-11.982-1.581-0.042-7.938-0.114-8.886-0.015-3.849 0.408-8.682 4.005-11.115 5.679-3.18 2.187-4.371 3.456-4.566 3.633-0.9 0.789-0.144 2.601-1.776 4.032-1.725 1.512-2.799 0.369-3.798 1.245-0.498 0.438-1.881 1.473-2.28 1.824-0.396 0.348-0.468 0.939-0.063 1.413 0 0 3.789 4.188 4.11 4.557 0.318 0.369 1.173 0.681 1.704 0.213 0.531-0.465 1.893-1.662 2.124-1.866 0.234-0.201-0.15-2.589 1.068-3.534zM26.529 22.218c-0.36-0.417-0.804-0.426-1.191-0.084l-4.305 3.753c-0.336 0.3-0.381 0.852-0.078 1.2l24.882 28.314c0.579 0.672 1.587 0.741 2.256 0.159l2.913-2.436c0.663-0.582 0.732-1.602 0.153-2.271l-24.63-28.635zM59.706 10.167c-0.222-1.482-0.99-1.17-1.389-0.54-0.393 0.627-2.163 3.303-2.889 4.512-0.72 1.206-2.49 3.573-5.802 1.236-3.444-2.436-2.244-4.137-1.647-5.28 0.603-1.149 2.454-4.365 2.724-4.77 0.264-0.405-0.048-1.581-1.113-1.089-1.071 0.495-7.569 3.078-8.472 6.78-0.921 3.771 0.774 7.137-2.55 10.482l-4.026 4.2 4.044 4.704 4.962-4.713c1.185-1.188 3.708-2.343 5.994-1.824 4.899 1.11 7.569-0.732 9.183-3.771 1.446-2.721 1.206-8.445 0.981-9.927zM8.22 51.153c-0.624 0.63-0.624 1.65 0 2.277l2.853 2.79c0.624 0.627 1.614 0.363 2.238-0.264l14.721-14.475-4.512-5.139-15.3 14.811z" fill="#000000"></path>
</svg>
