<?xml version="1.0" encoding="utf-8"?>
<!-- Generated by IcoMoon.io -->
<!DOCTYPE svg PUBLIC "-//W3C//DTD SVG 1.1//EN" "http://www.w3.org/Graphics/SVG/1.1/DTD/svg11.dtd">
<svg version="1.1" xmlns="http://www.w3.org/2000/svg" xmlns:xlink="http://www.w3.org/1999/xlink" width="60" height="60" viewBox="0 0 60 60">
<path d="M37.131 43.344c-7.473-2.694-9.861-4.968-9.861-9.837 0-2.922 2.283-1.968 3.285-7.32 0.417-2.22 2.433-0.036 2.814-5.103 0-2.019-1.098-2.523-1.098-2.523s0.561-2.991 0.777-5.289c0.27-2.868-1.674-10.272-12.048-10.272s-12.318 7.404-12.048 10.272c0.219 2.301 0.78 5.289 0.78 5.289s-1.101 0.501-1.101 2.523c0.387 5.067 2.403 2.883 2.814 5.103 1.005 5.352 3.288 4.398 3.288 7.32 0 4.869-2.391 7.143-9.864 9.837-0.9 0.321-3.045 0.825-4.869 1.614v12.042h48c0 0 0-4.437 0-6.315s-3.369-4.638-10.869-7.341zM51 27v-9h-6v9h-9v6h9v9h6v-9h9v-6h-9z" fill="#000000"></path>
</svg>
