<?xml version="1.0" encoding="utf-8"?>
<!-- Generated by IcoMoon.io -->
<!DOCTYPE svg PUBLIC "-//W3C//DTD SVG 1.1//EN" "http://www.w3.org/Graphics/SVG/1.1/DTD/svg11.dtd">
<svg version="1.1" xmlns="http://www.w3.org/2000/svg" xmlns:xlink="http://www.w3.org/1999/xlink" width="60" height="60" viewBox="0 0 60 60">
<path d="M60 56.4c0 0-0.117-11.361-0.813-12.537-1.035-1.755-3.438-2.958-7.902-4.824-4.449-1.86-5.874-3.432-5.874-6.789 0-2.019 1.359-1.359 1.956-5.052 0.246-1.533 1.446-0.027 1.677-3.522 0-1.395-0.654-1.743-0.654-1.743s0.33-2.064 0.462-3.651c0.162-1.98-0.999-7.089-7.176-7.089s-7.332 5.112-7.173 7.089c0.129 1.587 0.459 3.651 0.459 3.651s-0.654 0.348-0.654 1.743c0.231 3.498 1.431 1.992 1.68 3.522 0.594 3.693 1.953 3.033 1.953 5.052 0 2.283-0.66 3.741-2.481 5.022 9.72 4.866 11.025 5.859 11.025 10.209v8.919h13.515zM30.672 40.725c-5.937-2.478-7.83-4.572-7.83-9.051 0-2.688 1.812-1.812 2.607-6.738 0.327-2.043 1.932-0.033 2.235-4.695 0-1.86-0.873-2.322-0.873-2.322s0.444-2.751 0.618-4.869c0.216-2.634-1.332-9.45-9.567-9.45s-9.78 6.813-9.564 9.45c0.174 2.118 0.615 4.869 0.615 4.869s-0.87 0.462-0.87 2.322c0.309 4.665 1.908 2.655 2.238 4.695 0.795 4.926 2.607 4.047 2.607 6.738 0 4.479-1.899 6.573-7.83 9.051-1.809 0.756-5.058 1.929-5.058 4.743v10.932h41.682c0 0 0-6.465 0-8.193 0-2.571-5.061-4.992-11.010-7.482z" fill="#000000"></path>
</svg>
