<?xml version="1.0" encoding="utf-8"?>
<!-- Generated by IcoMoon.io -->
<!DOCTYPE svg PUBLIC "-//W3C//DTD SVG 1.1//EN" "http://www.w3.org/Graphics/SVG/1.1/DTD/svg11.dtd">
<svg version="1.1" xmlns="http://www.w3.org/2000/svg" xmlns:xlink="http://www.w3.org/1999/xlink" width="60" height="60" viewBox="0 0 60 60">
<path d="M44.46 43.344c-7.395-2.694-9.759-4.968-9.759-9.837 0-2.922 2.259-1.968 3.249-7.32 0.411-2.22 2.406-0.036 2.79-5.103 0-2.019-1.089-2.523-1.089-2.523s0.555-2.991 0.771-5.289c0.264-2.868-1.656-10.272-11.922-10.272-10.263 0-12.189 7.404-11.919 10.272 0.216 2.298 0.771 5.289 0.771 5.289s-1.092 0.501-1.092 2.523c0.381 5.067 2.376 2.883 2.787 5.103 0.993 5.352 3.252 4.398 3.252 7.32 0 4.869-2.364 7.143-9.759 9.837-7.422 2.7-12.24 5.457-12.24 7.338 0 1.878 0 6.315 0 6.315h56.4c0 0 0-4.437 0-6.315s-4.821-4.635-12.24-7.338z" fill="#000000"></path>
</svg>
