<?xml version="1.0" encoding="utf-8"?>
<!-- Generated by IcoMoon.io -->
<!DOCTYPE svg PUBLIC "-//W3C//DTD SVG 1.1//EN" "http://www.w3.org/Graphics/SVG/1.1/DTD/svg11.dtd">
<svg version="1.1" xmlns="http://www.w3.org/2000/svg" xmlns:xlink="http://www.w3.org/1999/xlink" width="40" height="40" viewBox="0 0 40 40">
<path d="M16.142 18.604c0 0 3.786-0.294 3.786-4.92s-3.098-6.884-7.020-6.884h-12.908v25.852h12.908c0 0 7.878 0.258 7.878-7.628 0.002 0 0.344-6.42-4.644-6.42zM5.688 11.394h7.22c0 0 1.754 0 1.754 2.69s-1.032 3.080-2.204 3.080h-6.77v-5.77zM12.542 28.058h-6.854v-6.91h7.22c0 0 2.616-0.036 2.616 3.55 0 3.024-1.954 3.338-2.982 3.36zM31.296 13.378c-9.54 0-9.532 9.93-9.532 9.93s-0.654 9.882 9.532 9.882c0 0 8.488 0.508 8.488-6.876h-4.364c0 0 0.144 2.782-3.978 2.782 0 0-4.366 0.304-4.366-4.496h12.854c0.002 0.002 1.408-11.222-8.634-11.222zM35.178 21.15h-8.148c0 0 0.534-3.986 4.366-3.986 3.828 0 3.782 3.986 3.782 3.986zM36.196 8.322h-10.236v3.184h10.234v-3.184z" fill="#000000"></path>
</svg>
