<?xml version="1.0" encoding="utf-8"?>
<!-- Generated by IcoMoon.io -->
<!DOCTYPE svg PUBLIC "-//W3C//DTD SVG 1.1//EN" "http://www.w3.org/Graphics/SVG/1.1/DTD/svg11.dtd">
<svg version="1.1" xmlns="http://www.w3.org/2000/svg" xmlns:xlink="http://www.w3.org/1999/xlink" width="40" height="40" viewBox="0 0 40 40">
<path d="M34.23 5.768c-3.352-3.35-7.558-4.576-8.898-3.236l-5.392 5.394c-0.818 0.818-1.532 3.556-1.204 6.326l-16.322 16.324c-0.968 0.966-0.184 3.32 1.752 5.256 1.936 1.938 4.292 2.72 5.258 1.754l16.322-16.322c2.772 0.328 5.51-0.386 6.326-1.204l5.394-5.394c1.34-1.34 0.114-5.546-3.236-8.898zM16.282 22.080c-0.746-0.744-0.502-2.194 0.538-3.236s2.49-1.284 3.236-0.54c0.742 0.744 0.502 2.194-0.54 3.236s-2.49 1.284-3.234 0.54zM29.782 10.218c-2.596-2.596-3.248-6.020-3.018-6.252 0.232-0.232 3.522 0.556 6.12 3.152 2.596 2.596 3.374 5.894 3.15 6.118s-3.658-0.422-6.252-3.018z" fill="#000000"></path>
</svg>
