<?xml version="1.0" encoding="utf-8"?>
<!-- Generated by IcoMoon.io -->
<!DOCTYPE svg PUBLIC "-//W3C//DTD SVG 1.1//EN" "http://www.w3.org/Graphics/SVG/1.1/DTD/svg11.dtd">
<svg version="1.1" xmlns="http://www.w3.org/2000/svg" xmlns:xlink="http://www.w3.org/1999/xlink" width="40" height="40" viewBox="0 0 40 40">
<path d="M3.98 11.178c0 2.986 0.998 5.144 2.964 6.41 1.61 1.038 3.48 1.194 4.452 1.194 0.236 0 0.424-0.010 0.556-0.018 0 0-0.308 2.006 1.18 3.992l-0.068-0.002c-2.578 0-10.988 0.54-10.988 7.454 0 7.034 7.724 7.39 9.272 7.39 0.122 0 0.192-0.002 0.192-0.002 0.018 0 0.128 0.004 0.316 0.004 0.994 0 3.564-0.124 5.952-1.286 3.096-1.502 4.668-4.118 4.668-7.77 0-3.53-2.392-5.63-4.14-7.166-1.066-0.936-1.988-1.744-1.988-2.53 0-0.8 0.672-1.402 1.524-2.164 1.376-1.232 2.676-2.986 2.676-6.302 0-2.916-0.378-4.872-2.708-6.112 0.244-0.124 1.102-0.214 1.528-0.274 1.262-0.172 3.108-0.368 3.108-1.398v-0.198h-9.196c-0.092 0.002-9.3 0.344-9.3 8.778zM18.826 29.204c0.176 2.812-2.23 4.888-5.842 5.15-3.668 0.27-6.69-1.382-6.866-4.194-0.084-1.35 0.508-2.672 1.67-3.726 1.18-1.066 2.796-1.724 4.558-1.856 0.208-0.012 0.414-0.022 0.62-0.022 3.394 0 5.694 1.996 5.86 4.648zM16.424 9.252c0.902 3.174-0.46 6.492-2.63 7.104-0.25 0.070-0.508 0.106-0.768 0.106-1.99 0-3.96-2.012-4.69-4.784-0.408-1.558-0.376-2.918 0.092-4.228 0.46-1.286 1.286-2.158 2.326-2.45 0.25-0.072 0.51-0.106 0.77-0.106 2.4 0 3.944 0.996 4.9 4.358zM31.922 16.164v-6h-3.8v6h-6v3.8h6v6h3.8v-6h6v-3.8h-6z" fill="#000000"></path>
</svg>
