<?xml version="1.0" encoding="utf-8"?>
<!-- Generated by IcoMoon.io -->
<!DOCTYPE svg PUBLIC "-//W3C//DTD SVG 1.1//EN" "http://www.w3.org/Graphics/SVG/1.1/DTD/svg11.dtd">
<svg version="1.1" xmlns="http://www.w3.org/2000/svg" xmlns:xlink="http://www.w3.org/1999/xlink" width="40" height="40" viewBox="0 0 40 40">
<path d="M30.4 20c0 5.744-4.658 10.4-10.4 10.4-5.744 0-10.4-4.656-10.4-10.4 0-0.684 0.068-1.352 0.196-2h-6.996v13.824c0 2.968 2.404 5.376 5.376 5.376h23.648c2.968 0 5.376-2.406 5.376-5.376v-13.824h-6.994c0.126 0.648 0.194 1.316 0.194 2zM31.824 2.8h-23.648c-2.97 0-5.376 2.408-5.376 5.376v5.824h8.708c1.882-2.66 4.984-4.4 8.492-4.4s6.61 1.74 8.492 4.4h8.708v-5.824c0-2.968-2.408-5.376-5.376-5.376zM34.454 9.44c0 0.53-0.432 0.96-0.96 0.96h-2.878c-0.528 0-0.96-0.432-0.96-0.96v-2.88c0-0.53 0.434-0.96 0.96-0.96h2.878c0.53 0 0.96 0.432 0.96 0.96v2.88zM26.4 20c0-3.536-2.866-6.4-6.4-6.4s-6.4 2.864-6.4 6.4 2.866 6.4 6.4 6.4 6.4-2.864 6.4-6.4z" fill="#000000"></path>
</svg>
