<?xml version="1.0" encoding="utf-8"?>
<!-- Generated by IcoMoon.io -->
<!DOCTYPE svg PUBLIC "-//W3C//DTD SVG 1.1//EN" "http://www.w3.org/Graphics/SVG/1.1/DTD/svg11.dtd">
<svg version="1.1" xmlns="http://www.w3.org/2000/svg" xmlns:xlink="http://www.w3.org/1999/xlink" width="40" height="40" viewBox="0 0 40 40">
<path d="M27.754 0h-15.508c-2.246 0-4.082 1.836-4.082 4.082v31.836c0 2.244 1.836 4.082 4.082 4.082h15.508c2.246 0 4.082-1.838 4.082-4.082v-31.836c0-2.246-1.836-4.082-4.082-4.082zM20 38.368c-1.576 0-2.856-0.914-2.856-2.042s1.28-2.042 2.856-2.042c1.578 0 2.856 0.914 2.856 2.042s-1.278 2.042-2.856 2.042zM28.57 32.244h-17.142v-26.938h17.142v26.938z" fill="#000000"></path>
</svg>
