<?xml version="1.0" encoding="utf-8"?>
<!-- Generated by IcoMoon.io -->
<!DOCTYPE svg PUBLIC "-//W3C//DTD SVG 1.1//EN" "http://www.w3.org/Graphics/SVG/1.1/DTD/svg11.dtd">
<svg version="1.1" xmlns="http://www.w3.org/2000/svg" xmlns:xlink="http://www.w3.org/1999/xlink" width="40" height="40" viewBox="0 0 40 40">
<path d="M33.71 9.67c0.544 1.028 0.814 2.298 0.814 3.824 0 3.464-1.46 6.26-4.376 8.382-2.92 2.124-6.998 3.184-12.236 3.184h-1.226c-0.922 0-1.844 0.724-2.050 1.61l-1.472 6.278c-0.206 0.888-1.128 1.614-2.050 1.614h-2.684l-0.24 1.026c-0.208 0.886 0.376 1.612 1.296 1.612h4.298c0.922 0 1.846-0.724 2.048-1.612l1.474-6.28c0.208-0.882 1.128-1.608 2.050-1.608h1.226c5.238 0 9.316-1.060 12.234-3.186 2.922-2.12 4.384-4.914 4.384-8.382 0-1.526-0.27-2.796-0.814-3.822-0.542-1.020-1.332-1.852-2.362-2.486-0.11-0.066-0.2-0.092-0.314-0.154zM10.486 30.308l1.474-6.28c0.208-0.882 1.126-1.608 2.050-1.608h1.226c5.238 0 9.316-1.060 12.234-3.186 2.918-2.122 4.378-4.916 4.378-8.382 0-1.526-0.27-2.796-0.816-3.822-0.542-1.020-1.332-1.852-2.36-2.486-1.054-0.644-2.292-1.092-3.726-1.354-1.434-0.258-3.116-0.39-5.048-0.39h-8.95c-0.924 0-1.846 0.72-2.054 1.608l-6.052 25.898c-0.208 0.888 0.376 1.614 1.296 1.614h4.298c0.924 0 1.848-0.724 2.050-1.612zM13.998 15.282l1.292-5.498c0.208-0.886 1.13-1.61 2.048-1.61h1.408c1.638 0 2.882 0.276 3.714 0.824 0.834 0.544 1.252 1.382 1.252 2.52 0 1.718-0.65 3.046-1.94 3.978-1.292 0.93-3.088 1.4-5.408 1.4h-1.064c-0.924 0-1.506-0.728-1.302-1.614z" fill="#000000"></path>
</svg>
