<?xml version="1.0" encoding="utf-8"?>
<!-- Generated by IcoMoon.io -->
<!DOCTYPE svg PUBLIC "-//W3C//DTD SVG 1.1//EN" "http://www.w3.org/Graphics/SVG/1.1/DTD/svg11.dtd">
<svg version="1.1" xmlns="http://www.w3.org/2000/svg" xmlns:xlink="http://www.w3.org/1999/xlink" width="40" height="40" viewBox="0 0 40 40">
<path d="M24.328 19.706c-0.46-0.308-1.028-0.574-1.68-0.792-0.648-0.212-1.378-0.41-2.174-0.584-0.628-0.15-1.086-0.266-1.36-0.344-0.266-0.076-0.532-0.182-0.79-0.316-0.25-0.128-0.448-0.282-0.586-0.458-0.132-0.166-0.196-0.356-0.196-0.588 0-0.376 0.2-0.694 0.61-0.97 0.426-0.288 1-0.432 1.704-0.432 0.758 0 1.31 0.13 1.642 0.388 0.34 0.268 0.638 0.644 0.88 1.124 0.214 0.376 0.402 0.636 0.59 0.804 0.196 0.18 0.48 0.272 0.844 0.272 0.402 0 0.742-0.146 1.012-0.434 0.266-0.288 0.402-0.616 0.402-0.976 0-0.376-0.106-0.764-0.308-1.154-0.2-0.384-0.524-0.758-0.954-1.106-0.43-0.344-0.976-0.624-1.624-0.832-0.644-0.208-1.416-0.31-2.294-0.31-1.098 0-2.068 0.156-2.884 0.466-0.83 0.316-1.472 0.774-1.912 1.364-0.442 0.594-0.666 1.284-0.666 2.048 0 0.8 0.214 1.484 0.636 2.026 0.416 0.538 0.984 0.964 1.688 1.274 0.69 0.3 1.556 0.568 2.576 0.792 0.75 0.16 1.358 0.314 1.804 0.458 0.428 0.136 0.784 0.338 1.048 0.596 0.254 0.246 0.378 0.558 0.378 0.958 0 0.504-0.238 0.916-0.728 1.262-0.5 0.352-1.166 0.53-1.98 0.53-0.59 0-1.072-0.088-1.428-0.262-0.354-0.172-0.632-0.392-0.824-0.654-0.2-0.274-0.39-0.62-0.564-1.032-0.156-0.376-0.35-0.668-0.576-0.866-0.238-0.206-0.528-0.31-0.866-0.31-0.412 0-0.756 0.132-1.026 0.392-0.272 0.264-0.41 0.584-0.41 0.956 0 0.592 0.212 1.208 0.628 1.826 0.414 0.616 0.958 1.112 1.62 1.478 0.924 0.504 2.108 0.76 3.518 0.76 1.176 0 2.208-0.188 3.072-0.554 0.872-0.374 1.542-0.898 1.996-1.558 0.458-0.666 0.688-1.426 0.688-2.258 0-0.698-0.132-1.294-0.398-1.782-0.264-0.482-0.636-0.888-1.108-1.202zM20 0.8c-10.604 0-19.2 8.596-19.2 19.2s8.596 19.2 19.2 19.2c10.606 0 19.2-8.596 19.2-19.2s-8.594-19.2-19.2-19.2zM24.602 30.752c-0.972 0-1.89-0.252-2.694-0.696-0.584 0.112-1.184 0.17-1.8 0.17-5.428 0-9.83-4.53-9.83-10.114 0-0.698 0.068-1.376 0.2-2.034-0.498-0.87-0.784-1.882-0.784-2.964 0-3.238 2.552-5.866 5.7-5.866 1.116 0 2.154 0.33 3.034 0.9 0.544-0.098 1.106-0.148 1.68-0.148 5.428 0 9.83 4.53 9.83 10.114 0 0.744-0.078 1.47-0.226 2.17 0.378 0.786 0.59 1.668 0.59 2.606-0.002 3.236-2.552 5.862-5.7 5.862z" fill="#000000"></path>
</svg>
