<?xml version="1.0" encoding="utf-8"?>
<!-- Generated by IcoMoon.io -->
<!DOCTYPE svg PUBLIC "-//W3C//DTD SVG 1.1//EN" "http://www.w3.org/Graphics/SVG/1.1/DTD/svg11.dtd">
<svg version="1.1" xmlns="http://www.w3.org/2000/svg" xmlns:xlink="http://www.w3.org/1999/xlink" width="40" height="40" viewBox="0 0 40 40">
<path d="M6.778 15.824l2.204 19.418c0.118 0.922 4.57 3.954 11.018 3.958 6.448-0.004 10.902-3.036 11.020-3.958l2.204-19.418c-3.368 1.884-8.402 2.776-13.224 2.776s-9.856-0.892-13.222-2.776zM26.334 3.824l-1.718-1.906c-0.662-0.942-1.382-1.118-2.784-1.118h-3.664c-1.4 0-2.12 0.176-2.784 1.118l-1.716 1.906c-5.14 0.898-8.868 3.28-8.868 5.036v0.342c0 3.092 6.804 5.6 15.2 5.6s15.2-2.508 15.2-5.6v-0.342c0-1.756-3.726-4.138-8.866-5.036zM24.138 8.278l-2.504-2.678h-3.268l-2.504 2.678h-3.4c0 0 3.724-4.44 4.222-5.042 0.38-0.46 0.77-0.636 1.274-0.636h4.086c0.504 0 0.892 0.176 1.274 0.636 0.496 0.602 4.222 5.042 4.222 5.042h-3.402z" fill="#000000"></path>
</svg>
