<svg display="none" version="1.1" xmlns="http://www.w3.org/2000/svg" xmlns:xlink="http://www.w3.org/1999/xlink">
<defs>
<symbol id="icon-xcoghome" viewBox="0 0 1024 1024">
	<title>home</title>
	<path class="path1" d="M512 64l-512 512 96 96 96-96 64 384h192v-192h128v192h192l64-384 96 96 96-96-512-512zM512 474.508c-49.988 0-90.512-40.52-90.512-90.508s40.524-90.51 90.512-90.51c49.984 0 90.51 40.524 90.51 90.51 0 49.988-40.526 90.508-90.51 90.508z"></path>
</symbol>
<symbol id="icon-xcogmusic" viewBox="0 0 1024 1024">
	<title>music</title>
	<path class="path1" d="M320 192l704-192v736c0 88.366-100.29 160-224 160s-224-71.634-224-160c0-88.366 100.29-160 224-160 34.358 0 66.902 5.532 96 15.406v-329.588l-448 122.182v480c0 88.366-100.288 160-224 160s-224-71.634-224-160c0-88.366 100.288-160 224-160 34.358 0 66.902 5.532 96 15.406v-527.406z"></path>
</symbol>
<symbol id="icon-xcogheadphones" viewBox="0 0 1024 1024">
	<title>headphones</title>
	<path class="path1" d="M192 578.286v443.43c10.454 1.496 21.134 2.286 32 2.286h32v-448.002h-32c-10.866 0-21.546 0.79-32 2.286zM768 576v448h32c10.868 0 21.546-0.79 32-2.286v-443.428c-10.454-1.496-21.132-2.286-32-2.286h-32zM1024 512c0-282.77-229.23-512-512-512s-512 229.23-512 512c0 61.418 10.828 120.306 30.656 174.874-19.472 33.202-30.656 71.852-30.656 113.126 0 89.354 52.326 166.478 128 202.432v-404.864c-20.126 9.562-38.58 22.060-54.858 36.904-5.992-29.22-9.142-59.478-9.142-90.472 0-247.424 200.576-448 448-448s448 200.576 448 448c0 30.994-3.148 61.252-9.142 90.472-16.28-14.844-34.73-27.342-54.858-36.904v404.864c75.676-35.954 128-113.078 128-202.432 0-41.274-11.184-79.924-30.656-113.126 19.828-54.568 30.656-113.456 30.656-174.874z"></path>
</symbol>
<symbol id="icon-xcogdice" viewBox="0 0 1024 1024">
	<title>dice</title>
	<path class="path1" d="M864 192h-512c-88 0-160 72-160 160v512c0 88 72 160 160 160h512c88 0 160-72 160-160v-512c0-88-72-160-160-160zM416 896c-53.020 0-96-42.98-96-96s42.98-96 96-96 96 42.98 96 96-42.98 96-96 96zM416 512c-53.020 0-96-42.98-96-96s42.98-96 96-96 96 42.98 96 96-42.98 96-96 96zM608 704c-53.020 0-96-42.98-96-96s42.98-96 96-96 96 42.98 96 96-42.98 96-96 96zM800 896c-53.020 0-96-42.98-96-96s42.98-96 96-96 96 42.98 96 96-42.98 96-96 96zM800 512c-53.020 0-96-42.98-96-96s42.98-96 96-96 96 42.98 96 96-42.98 96-96 96zM828.76 128c-14.93-72.804-79.71-128-156.76-128h-512c-88 0-160 72-160 160v512c0 77.046 55.196 141.83 128 156.76v-636.76c0-35.2 28.8-64 64-64h636.76z"></path>
</symbol>
<symbol id="icon-xcogcart" viewBox="0 0 1024 1024">
	<title>cart</title>
	<path class="path1" d="M847.218 576c35.2 0 71.912-27.692 81.582-61.538l92.836-324.926c9.67-33.844-11.218-61.536-46.418-61.536h-655.218c0-70.692-57.308-128-128-128h-192v128h192v544c0 53.020 42.98 96 96 96h608c35.346 0 64-28.654 64-64s-28.654-64-64-64h-576v-64h527.218zM320 256h578.806l-54.858 192h-523.948v-192zM384 944c0 44-36 80-80 80h-32c-44 0-80-36-80-80v-32c0-44 36-80 80-80h32c44 0 80 36 80 80v32zM960 944c0 44-36 80-80 80h-32c-44 0-80-36-80-80v-32c0-44 36-80 80-80h32c44 0 80 36 80 80v32z"></path>
</symbol>
<symbol id="icon-xcogbubble" viewBox="0 0 1024 1024">
	<title>bubble</title>
	<path class="path1" d="M512 192c-54.932 0-107.988 8.662-157.694 25.742-46.712 16.054-88.306 38.744-123.628 67.444-66.214 53.798-102.678 122.984-102.678 194.814 0 40.298 11.188 79.378 33.252 116.152 22.752 37.92 56.982 72.586 98.988 100.252 30.356 19.992 50.78 51.948 56.176 87.894 1.8 11.984 2.928 24.088 3.37 36.124 7.47-6.194 14.75-12.846 21.88-19.976 24.154-24.152 56.78-37.49 90.502-37.49 5.368 0 10.762 0.336 16.156 1.024 20.974 2.666 42.398 4.020 63.676 4.020 54.934 0 107.988-8.66 157.694-25.742 46.712-16.054 88.306-38.744 123.628-67.444 66.214-53.796 102.678-122.984 102.678-194.814s-36.464-141.016-102.678-194.814c-35.322-28.698-76.916-51.39-123.628-67.444-49.706-17.080-102.76-25.742-157.694-25.742zM512 64v0c282.77 0 512 186.25 512 416 0 229.752-229.23 416-512 416-27.156 0-53.81-1.734-79.824-5.044-109.978 109.978-241.25 129.7-368.176 132.596v-26.916c68.536-33.578 128-94.74 128-164.636 0-9.754-0.758-19.33-2.164-28.696-115.796-76.264-189.836-192.754-189.836-323.304 0-229.75 229.23-416 512-416z"></path>
</symbol>
<symbol id="icon-xcogspinner" viewBox="0 0 1024 1024">
	<title>spinner</title>
	<path class="path1" d="M512 0c-278.748 0-505.458 222.762-511.848 499.974 5.92-241.864 189.832-435.974 415.848-435.974 229.75 0 416 200.576 416 448 0 53.020 42.98 96 96 96s96-42.98 96-96c0-282.77-229.23-512-512-512zM512 1024c278.748 0 505.458-222.762 511.848-499.974-5.92 241.864-189.832 435.974-415.848 435.974-229.75 0-416-200.576-416-448 0-53.020-42.98-96-96-96s-96 42.98-96 96c0 282.77 229.23 512 512 512z"></path>
</symbol>
<symbol id="icon-xcogbinoculars" viewBox="0 0 1024 1024">
	<title>binoculars</title>
	<path class="path1" d="M64 0h384v64h-384zM576 0h384v64h-384zM952 320h-56v-256h-256v256h-256v-256h-256v256h-56c-39.6 0-72 32.4-72 72v560c0 39.6 32.4 72 72 72h304c39.6 0 72-32.4 72-72v-376h128v376c0 39.6 32.4 72 72 72h304c39.6 0 72-32.4 72-72v-560c0-39.6-32.4-72-72-72zM348 960h-248c-19.8 0-36-14.4-36-32s16.2-32 36-32h248c19.8 0 36 14.4 36 32s-16.2 32-36 32zM544 512h-64c-17.6 0-32-14.4-32-32s14.4-32 32-32h64c17.6 0 32 14.4 32 32s-14.4 32-32 32zM924 960h-248c-19.8 0-36-14.4-36-32s16.2-32 36-32h248c19.8 0 36 14.4 36 32s-16.2 32-36 32z"></path>
</symbol>
<symbol id="icon-xcogsearch" viewBox="0 0 1024 1024">
	<title>search</title>
	<path class="path1" d="M992.262 871.396l-242.552-206.294c-25.074-22.566-51.89-32.926-73.552-31.926 57.256-67.068 91.842-154.078 91.842-249.176 0-212.078-171.922-384-384-384-212.076 0-384 171.922-384 384s171.922 384 384 384c95.098 0 182.108-34.586 249.176-91.844-1 21.662 9.36 48.478 31.926 73.552l206.294 242.552c35.322 39.246 93.022 42.554 128.22 7.356s31.892-92.898-7.354-128.22zM384 640c-141.384 0-256-114.616-256-256s114.616-256 256-256 256 114.616 256 256-114.614 256-256 256z"></path>
</symbol>
<symbol id="icon-xcogcog" viewBox="0 0 1024 1024">
	<title>cog</title>
	<path class="path1" d="M933.79 610.25c-53.726-93.054-21.416-212.304 72.152-266.488l-100.626-174.292c-28.75 16.854-62.176 26.518-97.846 26.518-107.536 0-194.708-87.746-194.708-195.99h-201.258c0.266 33.41-8.074 67.282-25.958 98.252-53.724 93.056-173.156 124.702-266.862 70.758l-100.624 174.292c28.97 16.472 54.050 40.588 71.886 71.478 53.638 92.908 21.512 211.92-71.708 266.224l100.626 174.292c28.65-16.696 61.916-26.254 97.4-26.254 107.196 0 194.144 87.192 194.7 194.958h201.254c-0.086-33.074 8.272-66.57 25.966-97.218 53.636-92.906 172.776-124.594 266.414-71.012l100.626-174.29c-28.78-16.466-53.692-40.498-71.434-71.228zM512 719.332c-114.508 0-207.336-92.824-207.336-207.334 0-114.508 92.826-207.334 207.336-207.334 114.508 0 207.332 92.826 207.332 207.334-0.002 114.51-92.824 207.334-207.332 207.334z"></path>
</symbol>
<symbol id="icon-xcogcog2" viewBox="0 0 1024 1024">
	<title>cog2</title>
	<path class="path1" d="M1024 608.094v-192.188l-146.774-24.462c-5.958-18.132-13.222-35.668-21.694-52.5l86.454-121.034-135.896-135.898-120.826 86.304c-16.91-8.554-34.538-15.888-52.768-21.902l-24.402-146.414h-192.188l-24.402 146.416c-18.23 6.014-35.858 13.348-52.766 21.902l-120.828-86.304-135.898 135.898 86.454 121.036c-8.47 16.83-15.734 34.366-21.692 52.498l-146.774 24.46v192.188l147.118 24.52c5.96 17.968 13.21 35.348 21.642 52.030l-86.748 121.448 135.898 135.896 121.654-86.894c16.602 8.35 33.89 15.528 51.764 21.434l24.578 147.472h192.188l24.578-147.474c17.874-5.906 35.162-13.084 51.766-21.432l121.652 86.892 135.896-135.896-86.744-121.446c8.432-16.682 15.678-34.062 21.64-52.032l147.118-24.518zM512 640c-70.692 0-128-57.306-128-128 0-70.692 57.308-128 128-128 70.694 0 128 57.308 128 128 0 70.694-57.306 128-128 128z"></path>
</symbol>
<symbol id="icon-xcogdashboard" viewBox="0 0 1024 1024">
	<title>dashboard</title>
	<path class="path1" d="M512 0c-282.77 0-512 229.23-512 512s229.23 512 512 512 512-229.23 512-512-229.23-512-512-512zM512 896c-212.078 0-384-171.922-384-384s171.922-384 384-384c212.078 0 384 171.922 384 384s-171.922 384-384 384zM448 256c0-35.346 28.654-64 64-64s64 28.654 64 64c0 35.346-28.654 64-64 64s-64-28.654-64-64zM640 320c0-35.346 28.654-64 64-64s64 28.654 64 64c0 35.346-28.654 64-64 64s-64-28.654-64-64zM256 320c0-35.346 28.654-64 64-64s64 28.654 64 64c0 35.346-28.654 64-64 64s-64-28.654-64-64zM448 704v64h128v-64l-64-320z"></path>
</symbol>
<symbol id="icon-xcoghappy" viewBox="0 0 1024 1024">
	<title>happy</title>
	<path class="path1" d="M512 1024c282.77 0 512-229.23 512-512s-229.23-512-512-512-512 229.23-512 512 229.23 512 512 512zM512 96c229.75 0 416 186.25 416 416s-186.25 416-416 416-416-186.25-416-416 186.25-416 416-416zM512 598.76c115.95 0 226.23-30.806 320-84.92-14.574 178.438-153.128 318.16-320 318.16-166.868 0-305.422-139.872-320-318.304 93.77 54.112 204.050 85.064 320 85.064zM256 352c0-53.019 28.654-96 64-96s64 42.981 64 96c0 53.019-28.654 96-64 96s-64-42.981-64-96zM640 352c0-53.019 28.654-96 64-96s64 42.981 64 96c0 53.019-28.654 96-64 96s-64-42.981-64-96z"></path>
</symbol>
<symbol id="icon-xcogsmiley" viewBox="0 0 1024 1024">
	<title>smiley</title>
	<path class="path1" d="M512 1024c282.77 0 512-229.23 512-512s-229.23-512-512-512-512 229.23-512 512 229.23 512 512 512zM512 96c229.75 0 416 186.25 416 416s-186.25 416-416 416-416-186.25-416-416 186.25-416 416-416zM256 320c0-35.346 28.654-64 64-64s64 28.654 64 64c0 35.346-28.654 64-64 64s-64-28.654-64-64zM640 320c0-35.346 28.654-64 64-64s64 28.654 64 64c0 35.346-28.654 64-64 64s-64-28.654-64-64zM704.098 627.26l82.328 49.396c-55.962 93.070-157.916 155.344-274.426 155.344s-218.464-62.274-274.426-155.344l82.328-49.396c39.174 65.148 110.542 108.74 192.098 108.74s152.924-43.592 192.098-108.74z"></path>
</symbol>
<symbol id="icon-xcogtongue" viewBox="0 0 1024 1024">
	<title>tongue</title>
	<path class="path1" d="M512 1024c282.77 0 512-229.23 512-512s-229.23-512-512-512-512 229.23-512 512 229.23 512 512 512zM512 96c229.75 0 416 186.25 416 416s-186.25 416-416 416-416-186.25-416-416 186.25-416 416-416zM256 320c0-35.346 28.654-64 64-64s64 28.654 64 64c0 35.346-28.654 64-64 64s-64-28.654-64-64zM640 320c0-35.346 28.654-64 64-64s64 28.654 64 64c0 35.346-28.654 64-64 64s-64-28.654-64-64zM768 576v64h-64v96c0 53.020-42.98 96-96 96s-96-42.98-96-96v-96h-256v-64h512z"></path>
</symbol>
<symbol id="icon-xcogsad" viewBox="0 0 1024 1024">
	<title>sad</title>
	<path class="path1" d="M512 1024c282.77 0 512-229.23 512-512s-229.23-512-512-512-512 229.23-512 512 229.23 512 512 512zM512 96c229.75 0 416 186.25 416 416s-186.25 416-416 416-416-186.25-416-416 186.25-416 416-416zM256 320c0-35.346 28.654-64 64-64s64 28.654 64 64c0 35.346-28.654 64-64 64s-64-28.654-64-64zM640 320c0-35.346 28.654-64 64-64s64 28.654 64 64c0 35.346-28.654 64-64 64s-64-28.654-64-64zM319.902 780.74l-82.328-49.396c55.962-93.070 157.916-155.344 274.426-155.344 116.508 0 218.462 62.274 274.426 155.344l-82.328 49.396c-39.174-65.148-110.542-108.74-192.098-108.74-81.558 0-152.924 43.592-192.098 108.74z"></path>
</symbol>
<symbol id="icon-xcogwink" viewBox="0 0 1024 1024">
	<title>wink</title>
	<path class="path1" d="M512 1024c282.77 0 512-229.23 512-512s-229.23-512-512-512-512 229.23-512 512 229.23 512 512 512zM512 96c229.75 0 416 186.25 416 416s-186.25 416-416 416-416-186.25-416-416 186.25-416 416-416zM542.74 711.028c140.248-27.706 249.11-91.542 288.454-176.594-21.654 167.956-161.518 297.566-330.85 297.566-119.242 0-223.858-64.282-282.892-160.948 70.41 55.058 194.534 65.808 325.288 39.976zM640 352c0-53.019 28.654-96 64-96s64 42.981 64 96c0 53.019-28.654 96-64 96s-64-42.981-64-96zM352 371.5c-41.796 0-77.334 15.656-90.516 37.5-3.54-5.866-5.484-32.174-5.484-38.75 0-31.066 42.98-56.25 96-56.25s96 25.184 96 56.25c0 6.576-1.944 32.884-5.484 38.75-13.182-21.844-48.72-37.5-90.516-37.5z"></path>
</symbol>
<symbol id="icon-xcoggrin" viewBox="0 0 1024 1024">
	<title>grin</title>
	<path class="path1" d="M512 1024c282.77 0 512-229.23 512-512s-229.23-512-512-512-512 229.23-512 512 229.23 512 512 512zM512 96c229.75 0 416 186.25 416 416s-186.25 416-416 416-416-186.25-416-416 186.25-416 416-416zM192 512v64c0 140.8 115.2 256 256 256h128c140.8 0 256-115.2 256-256v-64h-640zM384 756.988c-26.538-9.458-50.924-24.822-71.544-45.446-36.406-36.402-56.456-84.54-56.456-135.542h128v180.988zM576 768h-128v-192h128v192zM711.544 711.542c-20.624 20.624-45.010 35.988-71.544 45.446v-180.988h128c0 51.002-20.048 99.14-56.456 135.542zM225.352 384c0.002 0 0 0 0 0 9.768 0 18.108-7.056 19.724-16.69 6.158-36.684 37.668-63.31 74.924-63.31s68.766 26.626 74.924 63.31c1.616 9.632 9.956 16.69 19.722 16.69 9.768 0 18.108-7.056 19.724-16.688 1.082-6.436 1.628-12.934 1.628-19.312 0-63.962-52.038-116-116-116s-116 52.038-116 116c0 6.378 0.548 12.876 1.628 19.312 1.62 9.632 9.96 16.688 19.726 16.688zM609.352 384c0.002 0 0 0 0 0 9.77 0 18.112-7.056 19.724-16.69 6.158-36.684 37.668-63.31 74.924-63.31s68.766 26.626 74.924 63.31c1.616 9.632 9.958 16.69 19.722 16.69s18.108-7.056 19.722-16.688c1.082-6.436 1.628-12.934 1.628-19.312 0-63.962-52.038-116-116-116s-116 52.038-116 116c0 6.378 0.544 12.876 1.626 19.312 1.624 9.632 9.964 16.688 19.73 16.688z"></path>
</symbol>
<symbol id="icon-xcogcool" viewBox="0 0 1024 1024">
	<title>cool</title>
	<path class="path1" d="M512 1024c282.77 0 512-229.23 512-512s-229.23-512-512-512-512 229.23-512 512 229.23 512 512 512zM512 96c229.75 0 416 186.25 416 416s-186.25 416-416 416-416-186.25-416-416 186.25-416 416-416zM800 256c17.6 0 32 14.4 32 32v96c0 35.2-28.8 64-64 64h-128c-35.2 0-64-28.8-64-64h-128c0 35.2-28.8 64-64 64h-128c-35.2 0-64-28.8-64-64v-96c0-17.6 14.4-32 32-32h192c17.6 0 32 14.4 32 32v32h128v-32c0-17.6 14.4-32 32-32h192zM512 768c93.208 0 174.772-49.818 219.546-124.278l54.88 32.934c-55.966 93.070-157.916 155.344-274.426 155.344-48.458 0-94.384-10.796-135.54-30.082l33.162-55.278c31.354 13.714 65.964 21.36 102.378 21.36z"></path>
</symbol>
<symbol id="icon-xcogangry" viewBox="0 0 1024 1024">
	<title>angry</title>
	<path class="path1" d="M512 1024c282.77 0 512-229.23 512-512s-229.23-512-512-512-512 229.23-512 512 229.23 512 512 512zM512 96c229.75 0 416 186.25 416 416s-186.25 416-416 416-416-186.25-416-416 186.25-416 416-416zM704.098 780.74c-39.174-65.148-110.544-108.74-192.098-108.74-81.556 0-152.924 43.592-192.098 108.74l-82.328-49.396c55.96-93.070 157.916-155.344 274.426-155.344 116.508 0 218.464 62.274 274.426 155.344l-82.328 49.396zM767.042 280.24c4.284 17.144-6.14 34.518-23.282 38.804-17.626 4.45-38.522 12.12-56.936 21.35 10.648 11.43 17.174 26.752 17.174 43.606 0 35.346-28.654 64-64 64s-64-28.654-64-64c0-1.17 0.036-2.33 0.098-3.484 2.032-47.454 45.212-78.946 81.592-97.138 34.742-17.37 69.102-26.060 70.548-26.422 17.146-4.288 34.518 6.138 38.806 23.284zM256.958 280.24c4.288-17.146 21.66-27.572 38.806-23.284 1.446 0.362 35.806 9.052 70.548 26.422 36.38 18.192 79.56 49.684 81.592 97.138 0.062 1.154 0.098 2.314 0.098 3.484 0 35.346-28.654 64-64 64s-64-28.654-64-64c0-16.854 6.526-32.176 17.174-43.606-18.414-9.23-39.31-16.9-56.936-21.35-17.142-4.286-27.566-21.66-23.282-38.804z"></path>
</symbol>
<symbol id="icon-xcogshocked" viewBox="0 0 1024 1024">
	<title>shocked</title>
	<path class="path1" d="M512 1024c282.77 0 512-229.23 512-512s-229.23-512-512-512-512 229.23-512 512 229.23 512 512 512zM512 96c229.75 0 416 186.25 416 416s-186.25 416-416 416-416-186.25-416-416 186.25-416 416-416zM384 704c0-70.692 57.308-128 128-128s128 57.308 128 128c0 70.692-57.308 128-128 128s-128-57.308-128-128zM640 352c0-53.019 28.654-96 64-96s64 42.981 64 96c0 53.019-28.654 96-64 96s-64-42.981-64-96zM256 352c0-53.019 28.654-96 64-96s64 42.981 64 96c0 53.019-28.654 96-64 96s-64-42.981-64-96z"></path>
</symbol>
<symbol id="icon-xcogconfused" viewBox="0 0 1024 1024">
	<title>confused</title>
	<path class="path1" d="M512 1024c282.77 0 512-229.23 512-512s-229.23-512-512-512-512 229.23-512 512 229.23 512 512 512zM512 96c229.75 0 416 186.25 416 416s-186.25 416-416 416-416-186.25-416-416 186.25-416 416-416zM256 320c0-35.346 28.654-64 64-64s64 28.654 64 64c0 35.346-28.654 64-64 64s-64-28.654-64-64zM640 320c0-35.346 28.654-64 64-64s64 28.654 64 64c0 35.346-28.654 64-64 64s-64-28.654-64-64zM726.106 640h64.864c9.246 72.506-32.452 144.53-103.958 170.56-82.904 30.176-174.9-12.716-205.080-95.616-18.108-49.744-73.306-75.482-123.048-57.372-45.562 16.588-70.956 64.298-60.988 110.424h-64.86c-9.242-72.508 32.45-144.528 103.956-170.56 82.904-30.178 174.902 12.716 205.082 95.614 18.104 49.748 73.306 75.482 123.044 57.372 45.562-16.584 70.956-64.298 60.988-110.422z"></path>
</symbol>
<symbol id="icon-xcogneutral" viewBox="0 0 1024 1024">
	<title>neutral</title>
	<path class="path1" d="M512 1024c282.77 0 512-229.23 512-512s-229.23-512-512-512-512 229.23-512 512 229.23 512 512 512zM512 96c229.75 0 416 186.25 416 416s-186.25 416-416 416-416-186.25-416-416 186.25-416 416-416zM256 320c0 35.346 28.654 64 64 64s64-28.654 64-64-28.654-64-64-64-64 28.654-64 64zM640 320c0 35.346 28.654 64 64 64s64-28.654 64-64-28.654-64-64-64-64 28.654-64 64zM384 704h256v64h-256v-64z"></path>
</symbol>
<symbol id="icon-xcogwondering" viewBox="0 0 1024 1024">
	<title>wondering</title>
	<path class="path1" d="M512 1024c282.77 0 512-229.23 512-512s-229.23-512-512-512-512 229.23-512 512 229.23 512 512 512zM512 96c229.75 0 416 186.25 416 416s-186.25 416-416 416-416-186.25-416-416 186.25-416 416-416zM745.74 601.62l22.488 76.776-437.008 128.002-22.488-76.776zM256 320c0-35.346 28.654-64 64-64s64 28.654 64 64c0 35.346-28.654 64-64 64s-64-28.654-64-64zM640 320c0-35.346 28.654-64 64-64s64 28.654 64 64c0 35.346-28.654 64-64 64s-64-28.654-64-64z"></path>
</symbol>
<symbol id="icon-xcogclose" viewBox="0 0 1024 1024">
	<title>close</title>
	<path class="path1" d="M1014.662 822.66c-0.004-0.004-0.008-0.008-0.012-0.010l-310.644-310.65 310.644-310.65c0.004-0.004 0.008-0.006 0.012-0.010 3.344-3.346 5.762-7.254 7.312-11.416 4.246-11.376 1.824-24.682-7.324-33.83l-146.746-146.746c-9.148-9.146-22.45-11.566-33.828-7.32-4.16 1.55-8.070 3.968-11.418 7.31 0 0.004-0.004 0.006-0.008 0.010l-310.648 310.652-310.648-310.65c-0.004-0.004-0.006-0.006-0.010-0.010-3.346-3.342-7.254-5.76-11.414-7.31-11.38-4.248-24.682-1.826-33.83 7.32l-146.748 146.748c-9.148 9.148-11.568 22.452-7.322 33.828 1.552 4.16 3.97 8.072 7.312 11.416 0.004 0.002 0.006 0.006 0.010 0.010l310.65 310.648-310.65 310.652c-0.002 0.004-0.006 0.006-0.008 0.010-3.342 3.346-5.76 7.254-7.314 11.414-4.248 11.376-1.826 24.682 7.322 33.83l146.748 146.746c9.15 9.148 22.452 11.568 33.83 7.322 4.16-1.552 8.070-3.97 11.416-7.312 0.002-0.004 0.006-0.006 0.010-0.010l310.648-310.65 310.648 310.65c0.004 0.002 0.008 0.006 0.012 0.008 3.348 3.344 7.254 5.762 11.414 7.314 11.378 4.246 24.684 1.826 33.828-7.322l146.746-146.748c9.148-9.148 11.57-22.454 7.324-33.83-1.552-4.16-3.97-8.068-7.314-11.414z"></path>
</symbol>
<symbol id="icon-xcogcode" viewBox="0 0 1024 1024">
	<title>code</title>
	<path class="path1" d="M128 512l256-256h-128l-256 256 256 256h128zM768 256h-128l256 256-256 256h128l256-256zM544 128l-160 768h96l160-768z"></path>
</symbol>
<symbol id="icon-xcogsearch2" viewBox="0 0 1024 1024">
	<title>search2</title>
	<path class="path1" d="M640 0.16c-212.064 0-384 171.936-384 384 0 64.832 16.224 125.856 44.64 179.456l-267.008 266.944 0.224 0.192c-20.864 20.512-33.856 48.928-33.856 80.512 0 62.368 50.56 112.928 112.928 112.928 31.52 0 59.968-12.992 80.48-33.888l-0.064-0.064 266.912-266.88c53.632 28.512 114.752 44.8 179.744 44.8 212.064 0 384-171.936 384-384s-171.936-384-384-384zM153.44 950.304c-10.304 10.688-24.576 17.376-40.512 17.376-31.2 0-56.48-25.248-56.48-56.448 0-15.936 6.72-30.176 17.376-40.512l-0.288-0.256 258.112-258.112c22.56 30.432 49.44 57.312 79.808 79.936l-258.016 258.016zM640 704.192c-176.704 0-320-143.328-320-320 0-176.704 143.296-320 320-320 176.672 0 320 143.296 320 320 0 176.672-143.328 320-320 320zM640 160.16c8.8 0 16 7.168 16 16s-7.2 16-16 16c-106.048 0-192 85.984-192 192 0 8.832-7.168 16-16 16s-16-7.168-16-16c0-123.712 100.256-224 224-224z"></path>
</symbol>
<symbol id="icon-xcoglab" viewBox="0 0 1024 1024">
	<title>lab</title>
	<path class="path1" d="M661.824 119.424c-15.136-15.104-35.2-23.424-56.576-23.424s-41.44 8.32-56.64 23.456l-45.12 45.184c-15.136 15.104-23.488 35.2-23.488 56.608 0 15.072 4.128 29.504 11.872 42.016l-434.464 174.048c-29.056 12.768-49.888 38.976-55.744 70.048-5.92 31.264 4 63.328 26.688 85.984l407.040 402.56c17.536 17.536 40.832 27.488 65.44 28.064 0.576 0.032 1.92 0.032 2.496 0.032 6.464 0 13.024-0.672 19.52-1.984 31.808-6.592 57.856-28.576 69.664-58.496l170.944-428.032c12.864 8.48 28 13.024 43.744 13.024 21.44 0 41.504-8.352 56.576-23.456l45.024-45.056c15.264-15.168 23.616-35.296 23.616-56.736s-8.384-41.6-23.424-56.576l-247.168-247.264zM533.088 939.744c-3.968 10.016-12.704 17.408-23.264 19.584-2.432 0.512-4.896 0.704-7.328 0.672-8.128-0.192-15.968-3.456-21.824-9.344l-407.296-402.816c-7.488-7.456-10.784-18.144-8.8-28.576 1.952-10.368 8.928-19.136 18.624-23.36l198.944-79.68c134.048 44.576 268.128 1.632 402.24 144.704l-151.296 378.816zM863.744 434.56l-45.248 45.216c-6.24 6.272-16.384 6.272-22.624 0l-56.576-56.544-45.824 114.848 3.808-9.696c-96.32-96.16-194.208-108.288-282.528-119.136-28.384-3.488-55.904-7.136-82.944-12.96l271.712-108.832-54.88-54.88c-6.24-6.24-6.24-16.384 0-22.624l45.248-45.28c6.24-6.24 16.384-6.24 22.624 0l247.2 247.264c6.336 6.24 6.336 16.384 0.032 22.624zM528 672c44.096 0 80-35.872 80-80s-35.872-80-80-80c-44.128 0-80 35.872-80 80s35.904 80 80 80zM528 544c26.496 0 48 21.504 48 48s-21.504 48-48 48c-26.528 0-48-21.504-48-48s21.472-48 48-48zM944 0c-44.128 0-80 35.872-80 80s35.872 80 80 80 80-35.872 80-80-35.872-80-80-80zM944 128c-26.496 0-48-21.504-48-48s21.504-48 48-48 48 21.504 48 48-21.504 48-48 48zM256 544c0 35.296 28.704 64 64 64s64-28.704 64-64-28.704-64-64-64-64 28.704-64 64zM320 512c17.664 0 32 14.304 32 32s-14.336 32-32 32-32-14.304-32-32 14.336-32 32-32zM384 736c0-17.673 14.327-32 32-32s32 14.327 32 32c0 17.673-14.327 32-32 32s-32-14.327-32-32zM896 256c0-17.673 14.327-32 32-32s32 14.327 32 32c0 17.673-14.327 32-32 32s-32-14.327-32-32z"></path>
</symbol>
<symbol id="icon-xcogtools" viewBox="0 0 1024 1024">
	<title>tools</title>
	<path class="path1" d="M160.461 352.768c47.821-37.12 87.45-11.571 140.339 49.664 5.99 6.861 13.978-1.178 18.483-5.12 4.506-3.994 74.342-66.765 77.722-69.683 3.43-3.021 7.526-8.653 2.099-14.95s-25.293-32-38.042-48.64c-92.57-121.088 253.235-203.213 200.090-204.493-26.982-0.717-135.475-1.946-151.654-0.256-65.69 6.963-148.173 68.352-189.696 96.922-54.272 37.325-74.598 58.982-77.926 62.003-15.36 13.466-2.458 44.39-30.31 68.813-29.44 25.805-47.77 6.298-64.819 21.248-8.499 7.475-32.102 25.139-38.912 31.13-6.758 5.939-7.987 16.026-1.075 24.115 0 0 64.666 71.475 70.144 77.773 5.427 6.298 20.019 11.622 29.082 3.635 9.062-7.936 32.307-28.365 36.25-31.846 3.994-3.43-2.56-44.186 18.227-60.314zM452.762 379.187c-6.144-7.117-13.722-7.27-20.326-1.434l-73.472 64.051c-5.734 5.12-6.502 14.541-1.331 20.48l424.653 483.226c9.882 11.469 27.085 12.646 38.502 2.714l49.715-41.574c11.315-9.933 12.493-27.341 2.611-38.758l-420.352-488.704zM1018.982 173.517c-3.789-25.293-16.896-19.968-23.706-9.216-6.707 10.701-36.915 56.371-49.306 77.005-12.288 20.582-42.496 60.979-99.021 21.094-58.778-41.574-38.298-70.605-28.109-90.112 10.291-19.61 41.882-74.496 46.49-81.408 4.506-6.912-0.819-26.982-18.995-18.586-18.278 8.448-129.178 52.531-144.589 115.712-15.718 64.358 13.21 121.805-43.52 178.893l-68.71 71.68 69.018 80.282 84.685-80.435c20.224-20.275 63.283-39.987 102.298-31.13 83.61 18.944 129.178-12.493 156.723-64.358 24.678-46.438 20.582-144.128 16.742-169.421zM140.288 873.011c-10.65 10.752-10.65 28.16 0 38.861l48.691 47.616c10.65 10.701 27.546 6.195 38.195-4.506l251.238-247.040-77.005-87.706-261.12 252.774z"></path>
</symbol>
<symbol id="icon-xcogsound" viewBox="0 0 1024 1024">
	<title>sound</title>
	<path class="path1" d="M225.178 269.363c-57.446 57.293-308.634 415.437-91.597 632.371 216.883 216.986 574.976-34.15 632.474-91.648 57.446-57.293-17.101-225.024-166.502-374.374-149.35-149.402-316.877-223.949-374.374-166.349zM699.443 760.32c-16.947 16.845-148.224-23.398-274.586-149.811-126.31-126.515-166.656-257.741-149.709-274.688 16.794-16.947 148.224 23.398 274.432 149.862 126.464 126.31 166.81 257.69 149.862 274.637zM707.174 356.813c13.107 0 26.214-5.018 36.198-15.002l97.536-97.587c20.019-20.019 20.019-52.378 0-72.397s-52.429-20.019-72.397 0l-97.536 97.587c-20.019 19.968-20.019 52.378 0 72.397 9.933 9.984 23.091 15.002 36.198 15.002zM522.803 230.144c7.936 4.454 16.486 6.554 24.986 6.554 17.92 0 35.277-9.472 44.698-26.214l55.347-98.816c13.824-24.678 5.018-55.91-19.661-69.683s-55.859-5.018-69.683 19.661l-55.347 98.816c-13.773 24.627-5.018 55.859 19.661 69.683zM970.701 384.512c-13.875-24.678-45.056-33.434-69.683-19.661l-98.816 55.347c-24.627 13.824-33.434 45.005-19.661 69.683 9.421 16.742 26.778 26.214 44.698 26.214 8.499 0 17.101-2.15 24.986-6.554l98.816-55.347c24.678-13.824 33.485-45.056 19.661-69.683z"></path>
</symbol>
</defs>
</svg>
